<?xml version="1.0" encoding="utf-8"?>
<!-- Generator: Adobe Illustrator 27.5.0, SVG Export Plug-In . SVG Version: 6.00 Build 0)  -->
<svg version="1.1" id="Layer_1" xmlns="http://www.w3.org/2000/svg" xmlns:xlink="http://www.w3.org/1999/xlink" x="0px" y="0px"
	 viewBox="0 0 3200 1600" style="enable-background:new 0 0 3200 1600;" xml:space="preserve">
<style type="text/css">
	.st0{fill:#E6E9F4;}
	.st1{opacity:0.26;}
	.st2{fill:none;stroke:#F97AD7;stroke-width:3;stroke-linecap:round;stroke-linejoin:round;stroke-miterlimit:10;}
</style>
<rect x="-1" y="-4" class="st0" width="3202" height="1603"/>
<g class="st1">
	<path class="st2" d="M2645.4,1600.4c4.1-13.3,7.8-26.8,12.2-40c8.7-26,27.3-39.2,54.1-39.9c36.7-0.9,74,1.4,109.9-4.4
		c56.5-9.1,95.7-42.3,112.6-98.8c12.8-42.7,26-85.2,38.3-128c7.2-24.9,9-50.4,2.5-76c-5.4-21.2-28.1-39.7-49.8-44.5
		c-37.2-8.2-70.6,4.9-104,16.4c-21.6,7.4-41.5,19.5-62.3,29.3c-39.8,18.7-55.9,52.8-55.8,93.9c0,49.1-4.9,96.5-24.7,142.1
		c-13.2,30.4-46.4,48.1-78.6,42.2c-18.1-3.3-37.2-0.7-55.9-0.8c-38.7-0.1-77.4,1.2-116-0.9c-26.1-1.4-51.9-10.1-78-11.2
		c-39.4-1.8-75.8-12.6-112-26.9c-47.1-18.6-94.1-37.7-142-54.2c-27-9.4-53.2-40.7-54.4-76.7c-1.2-34.6,11-62.4,28.9-90.2
		c17.4-27.1,31.8-56.2,48.9-83.5c10.6-16.9,22.7-33.1,36.2-47.8c16.8-18.4,35.4-20.6,57.5-5.7c24.4,16.5,47.1,35.4,70,54
		c36.4,29.5,70.3,61.5,117.6,75.1c35.3,10.2,68.8-4.6,74.2-46.5c3.9-30.5,4.7-61.5,8.9-91.9c2.9-20.9,9.2-41.4,13.8-62
		c5.4-24.3,10-48.6-3.6-72.1c-12.6-21.7-31.4-32.3-55.9-36.5c-42.9-7.3-76.7,9.3-108.4,35.7c-33.3,27.8-66.8,55.9-108.1,71.8
		c-18.8,7.2-35.4,3.7-52.1-7.9c-52-36.3-74.8-96.4-62.1-162.7c10.9-57,43.5-100.6,75.2-145.8c22.9-32.7,46.5-65.3,65.7-100.2
		c10.2-18.7,14.1-41.9,16.5-63.6c2.8-25.1,2-50.7,0.6-76c-2.5-46.3,10.4-89.9,20.5-134.1c1.7-7.6,0.3-16,0.3-24.7
		c-20.3-16.7-42.8-10.3-63.9-3.2c-52.2,17.4-105.5,28.6-160.3,33.3c-20.8,1.8-41.7,3.7-62,8c-29.4,6.2-52,23.3-70.5,47.2
		c-20,25.8-42.2,50.1-76.1,57.6c-11.6,2.6-24.2,3.4-35.9,1.7c-17.2-2.5-25.5-23-17.7-43.6c11.3-29.6,24.3-58.6,36.1-88
		c17.6-44.1,11.3-86.5-4.8-130.3c-20.6-56.3-55.2-102.6-91.9-148.4C1729.6,30,1722.9,16,1715,2.9"/>
	<path class="st2" d="M2691.4,1602.6c23.5-24.5,54.2-31,86.2-33.6c55.1-4.5,106.3-18.4,146.2-59.6c26.6-27.5,40-62.2,50.2-97.9
		c10-35,19.2-70.3,26.3-106c7.3-36.9,11.4-74.4,3-112c-2.3-10.4-1.2-21.8-4.5-31.9c-3.4-10.6-8.6-21.5-15.9-29.8
		c-7.7-8.8-18.4-5.5-29.7-3.1c-29.6,6.3-60.7,7-89.8,15c-34.9,9.6-68.5,23.8-102.3,37.2c-20.5,8.1-39.7,19.7-60.3,27.3
		c-32.7,12-46.6,38.2-58.5,68c-15.5,39.1-33.2,77.4-50.2,116c-9.9,22.5-29.9,33.2-52.1,35.3c-39.8,3.6-77.3,17.5-116.2,23.3
		c-61.4,9.2-123.6,11.3-181.8-17.9c-42.7-21.4-85.3-42.8-127.8-64.6c-34.6-17.8-36-57.4-18.9-83.5c22.7-34.7,48.1-68.8,83.8-92
		c26-16.9,55.2-13.8,81.6-1.5c34.9,16.1,67.5,37.2,102.3,53.5c30.1,14.1,60.4,28.7,95.8,27.1c35.5-1.6,65-28.6,63.9-64.1
		c-1-34.1-6.7-68.1-6.6-102.1c0.1-24.7,4.9-49.6,9.9-73.9c7.1-34.8,11.9-70.1-6.5-101.8c-21-36.1-57.5-49.2-97.3-54.8
		c-46.7-6.5-85.3,9.4-118.2,41.7c-22.3,21.9-50.4,34.4-80.2,36.7c-24.7,2-49.8-7.3-69.6-23.6c-17.5-14.4-25.6-34.7-26.1-57.8
		c-1.1-47,18.7-86,46.5-121.9c27.4-35.3,55.9-69.8,82.1-106c19.4-26.9,28-58.4,28.6-91.7c0.5-24.7,0.9-49.4,0.2-74
		c-1.2-44.8,10.2-85.6,36.6-121.9c16.9-23.3,22.3-49.5,11.7-75.8c-10.9-27.1-53.9-43.5-83.2-32.1c-30.8,12-60.7,26.6-90.2,41.5
		c-31.1,15.6-64.1,21.7-98.2,23.3c-43.9,2-86.9-4.8-130-12c-18-3-26.9-13.7-33.9-28.5c-19.8-42.1-38.1-85-59.9-126.1
		c-21.9-41.2-47.4-80.4-71.1-120.6c-4.4-7.4-8-15.3-12-23"/>
	<path class="st2" d="M1977.2,1597.9c-31.2-29.5-61.9-59.6-93.9-88.2c-42.9-38.3-66.2-88-85.7-140.4c-5.6-14.9-14.1-29.3-23.7-42.1
		c-29.9-39.9-65.1-75.2-109.7-98c-26.1-13.4-55.4-14.8-85.7-13.9c-46.1,1.4-86.4,19.7-128.2,34.5c-42.7,15.1-63.9,3-84.2-32.1
		c-20.3-35.2-26.9-74.7-39-112.5c-7.1-22.1-12-45.1-15.7-68.1c-3.2-19.6-3.4-39.7-4.8-56.9c38.8-23.5,73.5-43.1,106.8-65
		c40.3-26.5,82.3-48.9,128.3-63.7c10.8-3.5,21.2-10.3,30-17.8c25.2-21.4,26.9-39.8,6.4-65.7c-18.8-23.7-44.4-36.6-73.8-40.1
		c-25.2-3-51-1.1-75.9-5.1c-38.6-6.1-78.7,0.6-116.2-15.7c-28.8-12.5-40.2-26.1-39.6-56.5c1.3-66.7,4.1-133.4,4.1-200.1
		c0-24-2.4-49.5-26.9-64.6c-65.1,3.4-127.8-8.5-190.4-23.7c-23.7-5.7-49.1-4.1-71.9-5.7c-31,13.1-16.7,38-13.1,54.5
		c11.9,54.7,32.8,106.4,61.9,154.8c12.9,21.3,21.7,45.1,32.1,67.9c13.7,30.2,36.7,49,67.7,60.6c40,14.9,72.8,36.8,82.5,83.9
		c6.3,30.8,20,60,28.8,90.4c13.9,48-3.8,64.9-52.1,58.4c-61.1-8.2-121.2-24.8-183.9-21.8c-45.3,2.2-63.4,23.6-56.7,68.4
		c5.8,39.3,20.9,77.3,16.1,118.1c-4.5,38-9.6,75.9-12.2,114c-3.1,46.4,0.4,90,44.7,121c25.4,17.8,52.7,37.5,60.1,71.6
		c4.3,19.8,8.8,39.9,9.6,60.1c1.9,51.6,25.4,94.4,51.9,136.3"/>
	<path class="st2" d="M1795,3.2c33.9,67.5,64.7,136.5,106.8,199.9c36,54.3,87.5,73.3,148.3,78.4c46.6,3.9,85.6-13.9,122.2-39.8
		c37-26.1,77.7-43.9,122.3-51.3c29-4.8,56.8,8.6,71.5,48.1c18.4,49.4,14.3,96.8-18.3,139.9c-28.2,37.3-41.8,78.8-38.7,126
		c1.5,22.6-0.1,45.3,0.1,68c0.6,69.4-30.6,122.1-82.3,166.3c-30.4,26-61.1,52.2-67.6,97.2c-4.9,34,14.2,66.6,48.6,70.4
		c25,2.8,46.4-6.3,65.9-20.1c13-9.2,25.6-19.8,36.1-31.8c28.5-32.7,62.9-40.9,104.5-31.7c47.6,10.5,89.9,28,117.8,70.8
		c28.3,43.4,31.7,90,24.2,140.3c-5.7,37.9-0.9,76.4,21,109.9c22.4,34.3,60.2,35.3,91.4,27c75.3-20,148.8-47,222.6-72
		c25.7-8.7,45.7-27.1,55.7-51.8c14.8-36.6,40-61.1,74.8-77.7c18.8-9,28.8-23.5,26.5-45.8c-2.2-20.6-4.3-41.4-3.5-62
		c0.9-23.4,6.3-46.6,7.5-70c1.4-27.9,3.9-56.5-0.2-83.9c-6.1-40.5-15.4-80.9-27.3-120.1c-15.4-50.7-50.4-87.1-95-114.7
		c-7.7-4.8-14.8-10.5-22-16c-27.6-21.5-30-49.7-19.5-80c14-40.3,27.9-80.6,44.6-119.8c19.2-45.1,48.5-81,100-91.9
		c30.7-6.5,61.2-14.8,92.2-19.2c29.8-4.2,54.1,10.7,75.8,29.8"/>
	<path class="st2" d="M0.4,1100.3c43.9-28.5,80.2-68.4,130.4-87.6c26-9.9,51.5-21.7,78.2-29.3c52.6-15,67.5-51.4,69.8-96.2
		c1.2-21.9-4.3-44.2-2.8-66c1.9-28.2,8.2-56,11.5-84.1c1.5-13.2,0-26.7,0.5-40c1.2-31.9,6.1-62.9,28.4-87.8
		c8.5-9.4,17.4-19.5,28.2-25.6c20.3-11.5,43,0.5,51.3,27.9c7.1,23.5,12.7,47.7,15.7,72c4.2,34.4,19.9,59.7,50.2,76.2
		c16.8,9.2,33.4,18.6,49.9,28.2c30.8,18,37.9,38.2,30.1,72.2c-8.9,38.3-17.6,77-22.2,116c-5.8,50.4,22.5,86.4,59.2,116
		c38.6,31.2,37.7,28.3,68-9.4c11.8-14.7,23.8-29.9,38.3-41.6c37.2-30,38.3-68.4,30.3-110.3c-6-31.2-13.8-62.6-15-94.1
		c-1.4-36.1,11-67,45.2-88.4C806,710.3,849.6,655.5,882,592.9c29.6-57.2,1.5-120.9-75-124.1c-36.3-1.5-70.8,8.2-103.9,20.3
		c-55.5,20.4-110.2,17.8-166.4,5.2c-32.1-7.2-65.1-11.6-97.9-14.3c-26.8-2.2-46-12-58-36.7c-17.2-35.1-33.2-71.1-54-104
		c-33.6-53.1-77.4-60.4-133.4-34.9c-37.8,17.2-72.6,41-114.1,49.9c-25.6,5.5-50.8,12.9-76.1,19.5"/>
	<path class="st2" d="M2065.2,1598.2c-16.6-40.1-51.2-63.4-83.8-88.2c-18.7-14.2-39-26.3-57.6-40.5c-35.9-27.4-52.1-66.9-65.9-108.1
		c-10.4-31-22.4-61.5-33.4-92.3c-4.8-13.5-9-27.2-15.2-46.2c22.7-3.7,41.2-10.1,59.3-9.1c83.9,5,123.4-61.9,141.9-116.3
		c9-26.4-5.7-48.9-39.3-67.9c-34-19.1-71.6-29.1-109.8-27.8c-57.4,2-107.4,20.6-130.5,80.7c-3,7.7-8.7,14.4-11.8,22.1
		c-15.6,37.9-46.7,48.8-84.3,52c-50.5,4.4-101.3,3.6-150.4,22.4c-62.7,24-86.5-5.6-101.3-57.8c-13.7-48.2-0.2-89.6,31.6-128.4
		c28.4-34.6,57.2-68.1,99.2-84.5c32.7-12.7,68-18.5,101.8-28.5c22.9-6.8,44.8-17.9,49.6-43.8c3-16,3.8-34.9-2-49.6
		c-13.9-35.1-31.8-68.7-49-102.5c-9.2-18.2-26.1-23.8-45.7-24.4c-24-0.7-48-3-72-4c-33.7-1.5-58.4-19.8-77.5-44.7
		c-31-40.4-61-81.5-70.2-134c-12.2-69.7,2.6-119,56.9-161.9c27.1-21.5,43.7-48.3,44.4-83.9c0.9-47.5,21.9-83.7,60.1-112.3
		c28.4-21.2,57.3-43.7,72.2-77.6c5.4-12.2,5.9-26.5,8.6-39.8"/>
	<path class="st2" d="M2035.2,1600.1c-39.9-32.8-79.7-65.8-119.7-98.5c-43.3-35.4-71.7-80.6-85.2-134.5
		c-8.7-34.9-29.1-62.5-50.1-90.1c-13.5-17.7-28.6-34.3-41.5-52.4c-17.4-24.4-40.6-35.5-70.1-36.3c-13.4-0.4-26.6-3-40-3.9
		c-52-3.3-101.5,8-150.2,25.3c-52.1,18.5-80.8,17.3-107.6-46.5c-15-35.6-24.4-73.2-23.2-112c0.5-14.8,4.6-33.3,14.2-43.3
		c31.4-32.5,65.1-63.1,99.9-92.1c35.6-29.7,81.9-36.1,123.9-52.1c20.3-7.7,41.2-15,48.4-39.6c4.7-16,0.1-29.9-6-44.1
		c-13.8-32.5-32.8-62.1-66.2-75.4c-22.1-8.8-47.5-9.7-71.6-13c-39-5.3-77.8-10.5-105.8-42.6c-4.4-5-9.3-10.1-11.8-16.1
		c-16.3-39.9-33.3-79.6-47.4-120.3c-13.2-38.2-16.9-77.7-8.2-118c3.4-15.7,4.6-31.9,6.3-48c3.2-30.3,24-50.8,42.8-75.3
		c-4-1.7-7.3-3-12.9-5.4c-3.5,2.5-11.5,6.7-17.5,12.9c-33.6,35.1-77.7,52.5-120.7,70.9c-40.9,17.5-83.1,7.3-123.7-4.4
		c-18.7-5.4-36.7-14.5-53.9-24.1c-20.5-11.4-26.1-30.9-28.5-53.8c-4.7-45.6-8.4-91.9-20.1-135.9c-11.8-43.9-19.9-87.2-18.4-132.5"/>
	<path class="st2" d="M1088.9,1594.6c-20.4-50.1-43.1-99.2-55.8-152.2c-8.3-34.5-32.6-58.7-59.3-80.4
		c-21.8-17.7-44.3-36.1-47.3-66.2c-2.4-23.8-1.9-48.1,0.2-72c2.2-24.8,8.6-49.3,11.6-74.1c2.7-22.5,2.2-45.4,4.7-68
		c4.1-36.1-10.7-67.6-21.8-100.2c-7.7-22.6-16.1-45-21.5-68.2c-8.2-35.1,28.2-65.2,65.9-55.7c52.5,13.3,105.3,23.2,160,20.8
		c37.9-1.7,60.6-29.8,50.1-66c-12.1-41.6-36.8-72-79.4-86.7c-17.4-6-35.9-12.9-49.3-24.7c-12.1-10.7-23.9-27.9-25.6-43.4
		c-6.6-61.4-31.8-116.3-54.6-172.1c-7.5-18.5-14.7-37.8-26.1-53.9c-24.6-34.8-61.8-42.1-101.4-38.5c-26.8,2.4-53.6,6.7-80.1,11.7
		c-29.6,5.6-59.3,11.2-88,19.8c-66.8,20-94.2,2-119.6-41.1c-19.2-32.6-45.6-54.8-80.2-68c-40.7-15.5-74.2-41.4-103.6-72.7
		c-30-31.9-66.1-51.4-107.7-65.2c-35.8-11.8-63.1-6.7-88.6,20.4c-32.2,34.2-65,68.3-110.3,85.6c-18.9,7.2-38.6,12.1-58,18"/>
	<path class="st2" d="M1064.9,1596.5c-9.2-24.7-17.6-49.8-28-74c-12.2-28.5-23.3-58.2-40.3-83.7c-16-24-37.8-44.7-59.3-64.4
		c-19.5-17.9-38.9-36-42.7-62.7c-3.3-22.9-4-47.2,0.3-69.8c7.6-39.9,15.5-79.5,20.9-120c5.4-41-0.3-78.3-17.2-114.1
		c-19.9-42.4-45-82.1-83.4-110.3c-29.3-21.5-39.8-65.9-11.3-98.3c36.8-42,74.6-82.9,120.3-115.9c28.9-20.9,46.4-50.2,47.7-85.7
		c0.6-18.5-6.2-37.6-11.2-56c-8.2-29.9-17.4-59.1-37.2-84.5c-28.6-36.8-65.8-42.9-108.3-36.3c-21.2,3.3-43.1,3.6-63.9,8.3
		c-27.1,6.2-53.5,15.5-80.2,23.3c-43,12.4-85.3,12.5-121.5-17c-17.7-14.4-29.7-35.6-46.6-51.3c-16.3-15.2-34.4-29.3-53.8-40.1
		c-31.8-17.8-60.8-37.1-84.1-66.3c-21-26.4-47.1-47.4-80.9-59.6c-39.3-14.2-72.1-7.1-104.5,16.2c-26.8,19.4-54.4,37.8-82.2,55.8
		c-26.2,17-55.4,26.5-86,31.9c-2.5,0.4-4.7,2.5-7,3.9"/>
	<path class="st2" d="M1040.9,1596.4c-10.1-41.9-32.5-78.3-51.5-116.3c-23-46.1-65.1-72.5-103.8-102.4
		c-24.9-19.2-42.5-71.6-35.9-102.3c5.4-25.1,9.9-50.5,12.2-76c2.9-32.5,3.2-65.3,4.7-98c1.8-38.8-11.9-71.2-39.6-98.3
		c-30.1-29.4-61-58.2-77.7-98.3c-21.9-52.6-13.7-102.9,32.1-140.5c23.2-19,42.2-43.1,62.6-65.4c20.4-22.3,40.9-44.6,60.2-67.9
		c29.1-34.9,30.6-75.2,16.2-115.8c-16.4-46.2-45.6-69.3-99.4-70.5c-44.5-1-86.9,8.8-128.2,25.2c-49,19.4-99.7,20.7-147.7-0.8
		c-74.1-33.2-137.7-81.2-188-146.1c-14.7-18.9-31.6-36.7-49.8-52.1c-31.7-26.8-68.1-25-103.5-8.4c-24.3,11.4-47.4,25.4-70.2,39.6
		c-35.4,22.1-74.2,34.3-114.3,43.4c-5.4,1.2-10.7,2.6-16,3.9"/>
	<path class="st2" d="M1929.1,1597.7c-33.2-38.1-66.4-76.3-99.6-114.4c-21.6-24.8-36.4-53.2-48.1-84.1
		c-20.2-52.9-62.7-86.5-106.8-119.1c-29.9-22.1-61.8-38.2-98.3-39c-26.3-0.6-53.4,5.3-78,17c-25,11.9-49.5,25.1-74.2,37.6
		c-26.9,13.6-35.5,10.2-54.2-14c-28.2-36.5-38.7-79.6-51.6-122.4c-11.7-38.5-23.9-77.2-39.8-114.1c-18.1-42.2-53.6-66.1-97.2-78.7
		c-32-9.3-63.5-21.4-96.1-27.4c-20.4-3.7-42.9-0.6-63.7,3.4c-20.3,3.9-30.5,19.9-30.1,41.3c0.4,19.4,3.6,38.7,3.3,58.1
		c-0.7,48-2.5,96.1-4.4,144.1c-1.7,44.3,17.2,77.6,51.4,104.6c18.8,14.8,35.9,32.2,51.7,50.2c12.4,14.2,16.4,32.7,16.2,51.8
		c-0.3,26-0.8,52-0.2,78c0.7,27.7,9.6,53.4,27.9,73.8c18.3,20.4,41.8,22.4,67.8,13c18.6-6.7,38.3-11.8,58-13.8
		c47.5-4.8,85.9,12.6,113.8,52"/>
	<path class="st2" d="M1899.1,1599.6c-39.8-50.2-80.1-100-119.2-150.8c-9.5-12.3-14.4-28.1-22.3-41.8
		c-14.8-25.8-29.5-51.4-55.5-68.5c-26-17.1-49.9-37.3-76.1-53.8c-56.9-35.9-116.6-18.5-163.9,21.3c-18,15.2-34,33-52.5,47.4
		c-22.6,17.5-37.2,13.3-51.7-11.9c-23.4-40.7-33.3-86.3-47.3-130.3c-14.8-46.5-23.6-94.4-46.8-138.7
		c-24.3-46.1-62.3-70.8-108.7-85.5c-25.8-8.2-52.9-13.9-79.9-16.1c-32.4-2.7-49.9,15.1-52.1,47.2c-3.1,45.3-6.6,90.7-8.3,136.1
		c-1.5,40.7,14.6,73.1,49.2,96.5c22.9,15.4,46,31.3,65.5,50.5c22.7,22.5,27,50.7,21.5,83.8c-4.9,29-1.7,60.3,3.2,89.7
		c4.5,26.6,35.6,41.4,61.1,36.7c46.7-8.7,93.2-7.6,137.9,10.5c24.3,9.8,42,28.1,55.9,50c5.2,8.1,10.6,16.1,15.9,24.1"/>
	<path class="st2" d="M2637.3,5.3c2,1.3,5.8,2.8,5.7,4c-1.4,36.3,7.1,74.2-12.4,107.9c-27.6,47.9-70.6,76.8-122.2,93.6
		c-15,4.9-30.6,8.3-46,11.9c-26.3,6.1-44.2,25.2-48.2,51.9c-4,26-4.6,53.3-13.2,77.7c-9,25.5-25.1,48.7-39.5,72.1
		c-15.6,25.4-23.9,52.3-24.2,82.1c-0.4,50,2,99.7,15.7,148.1c8.3,29.3,24.7,38,51.6,28.1c44.9-16.6,91.6-30.2,130.1-59.7
		c51.5-39.5,109.3-69.9,157.5-114.4c14.4-13.3,37.4-19,57.5-24.1c30.8-7.9,54.5-24.4,67.7-52.5c30-63.4,58-127.8,87.1-191.6
		c26.3-57.7,71.5-94.1,130.3-116c21.7-8.1,41.6-20.8,62.3-31.4c28.1-14.3,56-17.5,84.1,0.2c6.3,4,13.3,6.8,19.9,10.2"/>
	<path class="st2" d="M2683.3,5.5c-1.1,40.3-6.8,79.6-20,118.2c-7.9,23.1-23.4,39.6-41,53.3c-38.2,29.7-78.2,56.1-125.7,70.7
		c-34.9,10.7-52.5,37.9-59.2,75c-9.3,51.7-18.8,103.4-51.1,148.6c-26.2,36.6-21.6,80.2-8.8,121.4c7.8,25,44.2,42,69.4,34.2
		c32.3-10,61.1-26.5,86.4-49.4c14.7-13.3,30.5-25.5,46.1-37.9c18.6-14.8,40.1-26.9,55.6-44.4c30.1-34.2,66.7-57.1,109-70.8
		c42.8-13.9,65.6-47.3,81.5-84.4c25.1-58.5,47.5-117.8,89-167.8c24.2-29.2,55.3-49.3,87.2-66.4c28.7-15.4,53-34.3,75.8-56.7
		c23.3-22.8,47.4-26.1,75.9-11.8c2.1,1.1,3.9,2.9,6,4c13.3,6.8,26.6,13.5,39.9,20.2"/>
	<path class="st2" d="M2092.9,591.7c8.3-13.4,23-13.7,36-18.1c53.3-17.9,77.1-71.3,58.5-123.6c-14.1-39.6-58.2-44.6-91.5-31.6
		c-45.2,17.6-56.7,57.5-40.7,111.1c0.6,2,1.7,3.8,3.2,7.1c-4.1,4.7-8.1,9.3-10.8,12.4c-15.1-2.8-27.9-4.9-40.5-7.6
		c-51.8-11.3-100,1.2-148.3,19c-31.2,11.5-58.7,26.9-79.9,52.4c-20.7,24.9-31,54.3-39.2,85.6c-9.5,36.6,6.2,69.6,8.9,104.2
		c2.1,26.3,8.4,52.5,15.5,78.1c9.2,33.1,25.9,45.2,59.5,44.1c42.1-1.4,84.2-3.6,126-7.7c30.3-2.9,55.7-21.1,69.3-45.9
		c28.3-51.8,61.5-101.2,78.1-159.1c11.6-40.5,11.2-79.3-4-118.2"/>
	<path class="st2" d="M540.7,1592.6c14.8-26,29.3-52.1,44.4-77.8c14.7-25.1,38.7-38.3,64.1-50c13.8-6.3,27.9-12.9,39.9-22
		c23.3-17.7,27-34.6,14.3-61.6c-16.1-34.5-39.7-64.3-72-83.7c-39.4-23.7-59.8-57.4-67.2-101c-8.1-47.1-33.5-85.9-59.6-124.2
		c-17.4-25.5-25.7-53.1-26-84.2c-0.3-34.1,4.7-67.1,12.5-100.1c8.5-36.2-11.3-71.1-47.6-83.9c-21.2-7.5-42.1-19.6-66.1-4.8
		c-22.9,14.1-36.3,34.7-45.8,58.3c-9.3,22.8-17.5,46.2-24.3,69.9c-14.9,52.3-49.7,78.6-102.5,88.2c-45.9,8.4-89.8,24.9-122.2,61.1
		c-23.3,26.1-50.3,46.1-82.5,59.5"/>
	<path class="st2" d="M3.4,279.7c10-4,20-8,30.1-11.9c54.8-21.1,94.2-57.3,114.7-113.6c12.5-34.4,26.8-47.5,75.9-27.8
		c46.1,18.6,92.4,36.9,131.8,68.5c22.2,17.8,44.5,35.5,65.7,54.4c22.8,20.4,50.7,30.6,78,42.2c32.4,13.8,63.6,28.9,84.2,60
		c8.2,12.3,20.1,22.6,31.7,32.2c13.9,11.5,31.6,10,47.7,8c30.9-3.8,61.4-10.5,92.2-15.1c30.6-4.5,61.3-8,92.1-11.8
		c32.7-4,65.6-6.7,97.9-12.5c7.6-1.4,18.1-11.7,19.4-19.3c5.9-34.4,9.6-69.2,13-103.9c3.8-39-9.5-74.6-23.3-110.2
		c-15-38.6-30.1-77.4-27.7-120.1"/>
	<path class="st2" d="M2745.3,5.7c-8.8,24.6-17.7,49.2-26.2,74c-7.7,22.5-12.1,46.8-23.2,67.5c-9.1,16.9-23.8,32.9-39.7,43.8
		c-47,32.2-96,61.4-143.9,92.2c-31.1,19.9-41.1,51.3-46.7,85.8c-6.7,41.9,1.3,85.5-16,126.1c-6.4,14.9-11.1,30.5-17.8,49.3
		c6.1,3.3,13.4,7.4,20.7,11.4c-0.8,2-1.5,4-2.3,6c9.7-3.5,19.9-6,29-10.7c29-14.8,58.8-28.4,85.9-46.1
		c24.5-15.9,47.3-35.1,68.2-55.6c24.5-24.1,50.4-44.6,82.6-57.5c42.9-17.2,69.6-49.6,82.4-93.6c23.7-81.5,74.9-142.9,140.8-193.6
		c26.7-20.6,54.5-40.1,79.8-62.3c9.7-8.6,13.9-23.4,20.6-35.4"/>
	<path class="st2" d="M3.5,245.7c46.3-6.5,99.6-47.1,102.7-99.7c1-18.1,4.7-36.1,8-54c6-32.4,33.5-46.8,63.9-31.5
		c27.4,13.8,53.4,30.5,80,46c36.6,21.4,73.8,42,109.6,64.8c19.9,12.7,38.8,27.7,55.8,44.2c32.4,31.4,73.8,44.8,114.3,59.7
		c27.8,10.3,53.4,23.7,75.5,42.9c26.7,23.1,56.2,35.1,92.1,34.5c57.6-0.9,113.7-8.2,168.2-27.7c43-15.3,67.4-44.5,77-89.7
		c7.3-34.4-1.2-64.5-14.6-94.1c-15.4-34-32.7-67.1-39.3-104.4c-2.2-12.6-4-25.4-5.9-38"/>
	<path class="st2" d="M4.7,217.7c32.8-10.3,58.2-28.8,67-63.8c3.4-13.7,5.9-27.9,6.1-42c0.3-28.7,7.9-54.6,24.6-78
		c18.9-26.3,42.4-32.8,72-13.6c21.7,14.1,42.2,30.1,64.1,43.9c28.8,18.2,57.7,36.4,87.9,52.2c37.9,19.8,72.5,44,103.3,73.1
		c32.7,30.9,70.3,49.2,114,58.6c46.7,10.1,84.3,40.6,126.2,61.4c30.2,14.9,63.3,20.1,97.8,11.4c23.5-5.9,48.7-5.8,71.8-12.7
		c41.7-12.3,73.6-36,87-81c9.3-31.1-0.6-58.5-13-83.9c-19.4-39.5-38.7-78.5-44.7-122.6c-1-7.3-1.3-14.7-2-22"/>
	<path class="st2" d="M352.7,1591.9c-10.8-52.3-34.2-99.9-55.7-148.2c-9.8-22-23.1-42.5-33.3-64.4c-9.7-20.9-19.3-42.1-25.5-64.2
		c-7.4-26.3,18.1-44,49.6-35.6c18.8,5,37.8,9.5,55.9,16.4c22.1,8.4,41.7,1.4,59.9-8.5c21-11.5,42.1-24.1,60-39.9
		c25-22.1,30.7-63.4,14.4-93.3c-10-18.4-24.3-34.5-35.3-52.5c-14.7-24.2-28.1-49.3-41.9-74.1c-16-28.8-31.3-32.7-53.8-9.9
		c-34.7,35.1-76,53.8-124.3,62.3c-22.9,4.1-50.2,12.2-53.8,42.9c-1.3,11,3.2,22.7,5.4,34c2.4,12.7,5.6,25.3,7.7,38.1
		c2.3,13.4-2.8,24.8-16.1,27.4c-15,2.9-28.3,10.4-46.2,5.4c-28.9-8.1-59.7-9.3-89.7-13.4c-10-1.4-20-2.7-30-4.1"/>
	<path class="st2" d="M2799.3,6.9c-20.2,49.7-36.4,100.7-48.5,152.9c-6,26-23.4,43.8-46.5,51.1c-54.7,17.4-99.7,50.8-146.1,82.3
		c-11.8,8-24.7,15.6-33.8,26.1c-25.3,29.1-36.9,62.7-26.9,101.7c1.1,4.4-1,9.6,0.3,13.9c9.5,33,27.4,50.3,65.7,32.2
		c10.5-5,22.3-9.8,29.8-18.1c35-38.6,75.9-69.4,120.8-95.2c29.6-17,40.9-45.1,43.7-76c3.9-42.2,19.3-75.9,47.8-108.8
		c44.4-51.2,99-88.2,151.4-128.8c11.6-9,20.3-21.6,30.4-32.6"/>
	<path class="st2" d="M0.6,1048.2c38.8-21.9,77.5-43.7,116.3-65.6c18.7-10.6,38.3-19.9,55.9-32.1c24.8-17.1,25.4-34.5,4.4-55.7
		c-8-8.1-16.5-15.6-23.8-24.2c-14.4-17-15.1-41.4-1.5-57.6c14.5-17.3,31-33.1,48-48c28.9-25.3,46-57.8,51.4-94.2
		c7.4-50.3,26.2-95.4,49-139.9c13.2-25.6,15.2-52.8,9.5-82.1c-3.7-19.5-4.5-39-12.3-58.1c-17.3-41.9-49.1-51-88.1-41.5
		c-32.8,8-63.9,23-96.4,32.6c-32.2,9.5-65.3,16.1-98,24.1c-3.8,0.9-7.4,2.6-11,3.9"/>
	<path class="st2" d="M3197.8,1000.1c-25.3-22.1-51.6-43.1-75.5-66.6c-31.3-30.9-45-70.2-45.8-114c-0.3-16-0.6-32.1,0.3-48
		c3-52.9-7.2-103.9-21.9-154.1c-9.7-33.2-18.3-67.6-34.5-97.6c-13.6-25.2-35.4-46.9-57-66.4c-32.8-29.6-41.1-64.3-28.9-104.6
		c9.2-30.4,20-60.6,32.3-89.9c18.3-43.7,53.4-60.1,99.9-62.6c49.2-2.6,90,17.6,131.9,37.3"/>
	<path class="st2" d="M196.5-3.7c38.7,37.2,81.1,69.5,129.9,92.2c31.8,14.9,64.3,28.1,91.6,50.8c15.6,13,30.9,26.4,45.9,40.2
		c24.4,22.4,53.7,32.5,85.9,36.4c42.8,5.2,81.8,20.6,118,44.2c35.8,23.4,74.2,33.2,118,25.5c26.6-4.7,52.6-7.8,76-22.5
		c34.6-21.8,52.2-61.3,28.1-105.9c-25.1-46.5-40-96.4-55.1-146.5c-1.1-3.7-0.1-8-0.1-12"/>
	<path class="st2" d="M3196,950c-31.2-17.1-59.6-37.9-75.2-70.6c-9.5-20-17.1-42.1-19.5-63.9c-4-35.7-0.8-72.3-5.1-107.9
		c-3.7-30.5-13.6-60.2-21-90.2c-5.7-23.4-12.2-46.7-17.6-70.1c-6.7-28.9-19.8-54.3-39.8-76.2c-12.1-13.2-25.5-25.7-35.5-40.4
		c-17.3-25.2-24-52.2-16.9-84.1c6.5-29.4,13.9-58.7,29.9-83.3c22.9-35.2,68.9-45.3,117.3-25.8c29.3,11.8,57.4,26.6,86,40"/>
	<path class="st2" d="M3196.1,914c-33.1-21.1-57.5-49-65.5-88.3c-4.8-23.7-6.9-47.1-2.9-72.2c6-37.7-3.4-74.4-18.1-110.2
		c-14.3-34.8-21.5-72-24.3-109.9c-2.2-29.2-11-56.1-31.5-78.2c-9.6-10.4-18.4-21.6-28-32c-31-33.5-28-71.1-13.5-110.2
		c20.4-55,73.4-51.2,118-25.4c28.8,16.7,51,40.9,69.9,68.1"/>
	<path class="st2" d="M390.7,1594c-2.6-8.7-4.9-17.5-8-26c-8.4-23.4-15.1-47.8-26.1-69.9c-17.2-34.8-32.7-69.7-39.5-108.4
		c-4.1-23-0.7-36.3,20.6-41.6c59.3-14.9,108.5-48,156-84.1c15.6-11.8,22.9-28.7,25-49.6c4.9-49-19-87-44.5-124.1
		c-24.3-35.5-35.5-74.4-39.4-116.4c-1.7-18.8-3-38-8.4-55.9c-3.6-11.9-14.3-21.8-21.4-32c-31.5,8.8-44.5,31-58.2,53.3
		c-14.3,23.3-29.5,46.2-46.3,67.8c-21.9,28.2-55,34.6-87.9,39.8c-48.4,7.7-89.8,26.8-107.9,75.9c-14.5,39.3-45.7,45.2-80.6,47.8
		c-8.1,0.6-16,3.7-24,5.7"/>
	<path class="st2" d="M1495,1598.1c-36.8-35.1-66.9-74.2-82.4-124.1c-4.9-15.7,0.3-26.3,5.2-38.2c17.3-42.3,35.4-84.4,70.4-115.8
		c36.1-32.4,76-36.4,115.7-11.3c33.1,20.9,65.9,43.1,95.4,68.8c18.2,15.9,32.4,38,43.9,59.7c18.2,34.5,47,60,70.2,90.1
		c17.7,23,34.6,46.7,51.9,70.2"/>
	<path class="st2" d="M2450.2,1353.5c-6.8-24-24-40.5-44.1-51.7c-44.1-24.6-87.2-51.1-137.4-63.6c-45.3-11.3-75.7,4.4-102.2,36.2
		c-5.2,6.2-10.1,12.9-14,20c-8.6,15.7-11.8,35.5,0.3,47.3c50.2,49.4,108.6,85.4,181.2,88.6c20.5,0.9,42.3-4.5,61.8-11.7
		c28.8-10.5,49.3-31,54.5-63.2"/>
	<path class="st2" d="M1835,3.4c10.6,29.1,19.4,58.9,32,87c24.7,55.1,55.1,107.8,109.5,138c55.4,30.7,112.1,27.9,165.8-8.6
		c25.1-17.1,50.3-34.1,76.3-49.6c29.4-17.6,45.8-42.4,52.6-76c6.1-30.4,15.8-60.1,23.9-90.1"/>
	<path class="st2" d="M1843.1,1599.4c-28.3-55.8-82.4-90.8-115.2-142.7c-24.6-39-55.7-69.9-95.9-92.5c-16.2-9.1-30.2-22-46.1-31.8
		c-45.6-27.9-82.6-0.2-100,29.5c-35.8,61.2-34.2,130.4,15.2,184.2c15.7,17,30.6,34.7,45.9,52.1"/>
	<path class="st2" d="M2909.4,1601.4c18.8-21.9,40.3-42.1,55.4-66.3c13.9-22.2,22.3-48.3,30.8-73.5c12-35.6,22.5-71.7,32.4-107.9
		c3.9-14.2,5.5-29.2,6.3-43.9c2.1-40,1.1-80.3,5.3-120c4.1-38.6,25.1-70.8,49.9-99.8c10.1-11.8,22-22.1,31-31.1
		c31-4.7,54.4,6.7,76.9,21.3"/>
	<path class="st2" d="M2405.3,1601.5c0-4.7,0-9.3,0.1-14c0.2-47.1-9.2-63.5-55.9-75.6c-61.3-15.8-120.6-37.1-179.8-58.9
		c-31.7-11.7-65.6-16.4-99.8-14.7c-8.1,0.4-16.4,1.4-24,4c-14.6,5-21.1,17.1-13.8,31.5c14.5,28.8,31.9,56.1,47.1,84.6
		c7.2,13.4,12.1,28,18.1,42"/>
	<path class="st2" d="M1879,2.5c-2.8,76.6,32.2,137.2,88.2,183.4c41.5,34.3,92.8,42.2,143,13.3c34.3-19.7,68.9-39.7,99.8-64.2
		c23.3-18.5,31.6-49.2,40.6-77.2c5.7-17.5,8.4-35.9,12.5-53.9"/>
	<path class="st2" d="M3005.5,1601.7c4.1-17.3,11.3-34.6,11.6-52c1.2-68.7,24.9-131,48-194.4c8.9-24.4,5.8-54.5,3-81.5
		c-5.2-51.2,2.8-114.9,51.2-142c24.8-13.9,50.7-17.6,78.1-9.7"/>
	<path class="st2" d="M794.7-0.5c22.5,55.8,46,111.2,67,167.5c16.4,43.9-9.8,77.6-55.9,82.3c-63.9,6.5-115-18.8-161.8-57.4
		c-30.1-24.8-63-27.8-100.2-21.1c-20.8,3.7-42.6-6.4-57.4-21.7c-36.4-37.6-80.4-59.5-129.9-74.9c-47.4-14.8-86.5-45.6-124-77.8"/>
	<path class="st2" d="M1815.1,1599.3c-23.7-39.2-60.6-66.1-91.5-98.5c-12.1-12.6-23-26.4-33.9-40.1c-33.2-41.7-77.7-68.3-124-92.1
		c-19.1-9.8-36.3-1.6-48,17.4c-17.6,28.7-14.4,57.8-4.5,88.2c10.9,33.6,33.4,58.8,56.1,84.1c12.3,13.7,25.2,26.8,37.8,40.2"/>
	<path class="st2" d="M1020.9,1596.4c-24.9-70.5-55-137.4-127.5-172.3c-19.1-9.2-39.4-16.7-59.9-22c-14.6-3.8-29,0-40.1,13.2
		c-26.2,31.1-58.3,54.3-96,70c-22.6,9.4-45.2,19.3-66,32c-28.6,17.4-44.5,46-58.5,75.4"/>
	<path class="st2" d="M3065.5,1603.9c-3.9-23.4-6.7-47-12-70c-9.1-39.5-1.1-76.3,14.9-112c6.2-13.8,13.5-27.4,22.2-39.9
		c22.9-33.1,22.1-67.6,10.6-104.3c-6.9-21.9-9.8-44.8-2.3-68c12.8-39.5,45.6-60.6,84.4-59.7c4.7,0.1,9.3,0,14,0.1"/>
	<path class="st2" d="M2341.2,4.2c-30.5,55.9-29.4,132.5,37.6,157.9c65.5,24.8,130.7,29.2,187.7-21.3c23-20.4,37.8-47,36.5-79.5
		c-0.7-18.7-2.4-37.4-3.7-56.1"/>
	<path class="st2" d="M330.6,1593.8c-2.6-6-6-11.8-7.8-18.1c-20.2-68.9-58-129-93.3-190.5c-10.1-17.6-19.3-35.7-27.8-54.1
		c-20.7-44.3-56.5-63.7-103.9-64.3c-32.7-0.4-65.4-0.3-98-0.4"/>
	<path class="st2" d="M3121.5,1602.2c-11.5-28.9-30-54.2-36.5-86c-7.5-36.6-2.2-69.2,19.7-97.8c13.9-18.1,32.9-32.4,49.7-48.2
		c4.5-4.2,9.7-7.6,13.9-12.1c13.1-13.8,13.4-26.8,2.3-42c-9.6-13.1-20.8-25.7-27.5-40.3c-23.7-51-0.2-88.2,54-93.7"/>
	<path class="st2" d="M1973.1,2.9c-8.7,9.3-18.1,18.1-26,28c-18.2,22.9-13,46.6-0.4,69.9c24.9,46,60.5,76.3,115.7,72.1
		c39.2-3,71.9-23.5,102.2-47.3c33.8-26.4,50.1-62.9,58.4-103.8c1.2-6,2.7-12,4.1-18"/>
	<path class="st2" d="M1002.9,1596.3c-15.2-26.7-29.7-54-45.9-80.1c-15.3-24.6-35.3-44.9-63.6-54.3c-27.6-9.1-55.8-6.7-81.8,4
		c-44.1,18.2-87,39.4-130.5,59c-32.6,14.7-57.2,38.1-76.3,67.8"/>
	<path class="st2" d="M304.6,1593.7c-7.9-23.4-12.7-48.5-24.4-69.8c-30.7-55.8-64.8-109.7-96.7-164.9c-49.2-85-142-63-184.1-10.6"/>
	<path class="st2" d="M2361.3,1601.3c0.2-40.9-12.8-60.8-51.8-74c-45-15.2-90.5-28.7-135.8-42.7c-9.1-2.8-18.5-5.1-28-6
		c-22.2-2.1-39.5,5.4-48.3,28.3c9.2,30.9,18.5,62.2,27.9,93.5"/>
	<path class="st2" d="M1244.9,0.2c28.1,30,54,61.2,70,100.2c24.8,60.3,4.4,110.7-31.3,157.9c-13.3,17.6-29.3,33.5-46.1,47.9
		c-41.4,35.4-89,35.6-137.8,19.6c-44-14.4-66.5-48.9-70.2-96.1c-2.5-31.6-12.8-62.6-14.3-94.2c-1.6-31.2,2.1-62.8,6.1-93.9
		c1.9-14.4,10.2-28.1,15.6-42"/>
	<path class="st2" d="M288.6,1593.6c-5.9-35-24-64.7-42-94c-24.4-39.7-50.9-78.1-77.5-116.4c-8.8-12.6-19.7-24.7-31.9-34
		c-22.8-17.4-61.8-16.4-87.5,7.6c-18.2,17-33.8,36.9-50.5,55.5"/>
	<path class="st2" d="M976.8,1596.2c-16.4-48.1-39.9-91.1-91.8-107.9c-26.8-8.7-53.9-1.3-79.9,9.1c-46.1,18.4-94.3,32.5-134.1,63.8
		c-12.2,9.6-22.9,21.1-34.3,31.7"/>
	<path class="st2" d="M780,192.6c10.6-5.4,21.3-10.9,29.3-15c3.8-40.5-6.8-72.2-26.9-101.1c-11.4-16.4-38.3-28.4-53.9-24.2
		c-18,4.8-31.3,21.2-34.2,41.9c-4.7,34.1,23.7,78.6,57.7,90.2c8.6,2.9,17.3,5.4,26,8.1"/>
	<path class="st2" d="M274.6,1593.6c-13.9-25.4-26.1-51.9-42.1-75.9c-24.4-36.5-51-71.4-77.5-106.4c-5.6-7.4-13.7-13.6-21.8-18
		c-27-14.8-40.3-15.5-65.7,5.8c-23.6,19.8-45.1,42.2-67.5,63.5"/>
	<path class="st2" d="M252.6,1593.5c-6.2-26.8-21.5-49-38-70c-21-26.8-42.1-53.8-65.9-78.1c-30.4-31-54.4-21.8-83.4-0.4
		c-23.2,17.1-44.4,36.9-66.4,55.5"/>
	<path class="st2" d="M2073.1,3.3c-20.8,28.7-45.5,55.4-47.3,92.8c24.8,28.4,48.4,31.7,81,17.7c49.2-21.2,69.4-58.6,68.3-110.2"/>
	<path class="st2" d="M954.8,1596.1c-7.3-12-14.3-24.2-21.9-36.1c-26.6-41.5-67.2-54.9-115.9-40.6c-52.6,15.6-101.6,37.6-142.3,75.6
		"/>
	<path class="st2" d="M1354.9,0.6c4.3,30.4,9.7,60,23.1,88.4c14,29.4,35.6,36.3,62.4,25.8c52.9-20.6,92.1-54.2,102.5-113.5"/>
	<path class="st2" d="M2441.2,4.6c-22,17.9-27,43.7-21.2,67.7c7.1,29.5,29.7,49.3,60.8,54.2c31.3,4.9,61-26,70.4-53.4
		c8.2-23.7-0.3-45.6-4-68.2"/>
	<path class="st2" d="M3198.2,884c-31.9-22.5-42.7-56-45-92.3c-1-15.8,2.8-32.7,8-47.8c8.6-24.9,5.4-47.1-5.8-70.4
		c-12.9-26.6-25.3-53.9-33.5-82.2c-11.5-39.8-6.4-78.9,17.9-113.8c14.4-20.7,37.8-23.4,60-27.9"/>
	<path class="st2" d="M234.6,1593.4c-17.9-24.7-35-50.2-54-74c-16.1-20.2-32.8-39.4-61.4-45.2c-22.2-4.5-36,8.5-52.1,16.9
		c-23,12-44.9,26.2-67.3,39.5"/>
	<path class="st2" d="M0.8,982.2c38.1-5,75.8-11.1,102-41.7c4.3-42.6-24.8-65.7-47.4-92.3c-14.3-16.8-32.4-23.4-54-22.2"/>
	<path class="st2" d="M3179.5,1604.4c-22.5-23-42.6-47.3-58.2-76c-25.7-47.5-7.6-90.1,29.1-113.8c13.9-8.9,30.5-13.6,45.8-20.2"/>
	<path class="st2" d="M714.8,1595.2c36.3-31.9,78.7-53.1,126.3-56.3c27-1.8,55.4,8,71.8,35.1c4,6.6,8,13.4,11.9,20.1"/>
	<path class="st2" d="M206.6,1593.3c-15.3-17.4-30.2-35.1-45.9-52.1c-24.1-26.2-53.8-33.5-85.7-17.9c-26.5,13-51,30-76.4,45.3"/>
	<path class="st2" d="M2313.3,1601.2c-3.5-33.5-30.5-41.5-55.9-49.9c-16.8-5.6-34.5-8.7-51.9-12.4c-20-4.3-38.6,9.5-40,29.8
		c-0.7,10-0.2,20-0.2,30"/>
	<path class="st2" d="M1777.1,1597.2c-16-22-38.4-35.4-61.5-48.9c-17.7-10.4-32.8-25.6-48.1-39.7c-22.9-21.1-41.4-47.8-74.7-56.2
		c-5,4.9-10.3,10.2-19.1,19c13.9,17.8,26.4,36.8,42,52.9c22.9,23.5,49.6,43.5,63.4,74.6"/>
	<path class="st2" d="M474.6-1.7c-9.9,24.3-21.4,46-52.2,49.2c-20.9,2.2-40.3-1.7-60-6.6c-30.2-7.4-54.4-25.2-77.9-44.4"/>
	<path class="st2" d="M1912.2,781.1c22.2-7.4,39.4-20,46.3-43.8c5-17.1-4.6-30.3-22-32.4c-39.1-4.6-57,30.7-52.2,62.1
		c2.4,15.3,14.5,14.4,25.9,14.1"/>
	<path class="st2" d="M563.9,736.1c31.4-11.9,62.3-25.5,94.4-35c17.5-5.2,37.2-5,55.8-4c25.6,1.4,48.4-6.6,65.6-22.8
		c28.4-26.6,48.7-59,61.6-97c19.2-57-36-84.4-76.4-74.6c-41.3,10-82.4,22.1-124.3,28.7c-23.9,3.7-49.2-3-73.9-3.1
		c-26-0.1-52.7-1-77.9,4.2c-31.1,6.5-46.1,27.2-43.9,57c2.1,27.6,7.3,55.1,13.5,82.1c9.1,39.3,42.7,64.8,87.5,64.4
		c5.3,0,10.7,0,16,0.1"/>
	<path class="st2" d="M101.8,728.4c46-9.9,66.4-31.7,78.1-77.8c5.5-21.9-19.6-65.8-41.7-71.6c-8.4-2.2-20.3-0.8-27.5,3.8
		C86.3,598.5,59.7,670,69.6,702.3c4.8,15.9,13.9,24.5,30.2,26"/>
	<path class="st2" d="M777.7,1337.3c16.3-6.8,15.6-22.5,17.9-36c3-17.2,7.2-34.9,5.5-51.9c-1.3-12.1-8.3-25.9-24.9-28.3
		c-19.4-2.8-41,5.1-50,20c-6.9,11.4-10.1,21.6-3,36.4c9.4,19.7,18.1,39.2,34.9,53.5c4.5,3.8,11.8,4.3,17.8,6.3"/>
	<path class="st2" d="M2342,1399.1c9.4-4.6,19.9-7.8,27.8-14.2c23.4-18.7,22.8-39.2,3.8-59.1c-24.2-25.4-55-41.8-91.1-47.5
		c-24-3.8-44.6-2.2-62.2,16.2c-17.6,18.4-19,34.9-2,54c29.1,32.7,63.8,53.9,109.7,50.6c4-0.3,8,0,12,0"/>
	<path class="st2" d="M552.1,672c24-8.6,47.5-20.4,72.3-24.9c25.3-4.6,52.6-6.2,77.7-1.7c44.9,8,90-23.8,90.4-68.6
		c0.1-5.3,0-10.7,0.1-16.5c-14.4-24-37.1-22.5-59.9-17.5c-22.3,4.9-43.8,13.8-66.2,17c-32.4,4.6-65.3,5.4-98,8.3
		c-17.7,1.6-35.6,3-50.1,15.7c-15.2,13.3-19.2,35.3-10.2,60.1c7.2,19.8,19.2,27.9,41.9,28.2"/>
	<path class="st2" d="M1160.5,630.3c27.9-11.4,38.4-36.9,47.9-62c11.7-30.9,26.5-61,25-95.9c-1-24-10.2-41.8-32.3-49.8
		c-40.6-14.7-82.5-26.3-125.8-28.4c-46.1-2.2-66.5,27-52.2,71.4c18,55.9,52.2,102.2,89.5,146.4c11.8,14,27.3,20.3,45.9,18.3"/>
	<path class="st2" d="M1977.8,1425.8c7.1-6.3,14.2-12.5,20-17.6c0.9-38.6-1.1-74.3-15.3-108.5c-7.8-18.8-25.3-32.3-42.1-30.1
		c-28.9,3.7-46.7,19.3-45.9,43.8c1.3,39.2,8.8,77,45.6,99.9c10.5,6.5,23.7,8.5,35.7,12.5"/>
	<path class="st2" d="M1289.5,1443.3c8.8-7,17.6-14,26.7-21.2c-16-35.5-17.7-69.7-19.1-104.8c-1.3-32.9-8.2-65.8-15.2-98.1
		c-7.5-34.4-16.7-68.6-27.5-102.2c-21-64.8-91.7-110.6-163.4-102.7c-21.4,2.3-30.4,19-35.7,36c-9.7,31.2-11.8,63.1-5.3,96
		c5.7,28.6,22.8,47.6,44.3,64c32.3,24.5,65.8,47.5,97.5,72.8c26,20.9,29.7,49.9,26.5,81.9c-2.5,25.3-7.5,54.8,21.6,69.3
		c13.9,7,31.6,6.2,47.6,8.9"/>
	<path class="st2" d="M1148.8,554.2c31.1-18.1,46.5-54.5,36.5-84c-8.9-26.2-33.3-33-54.3-39.1c-23.6-6.8-51.9-15.1-69.7,14.4
		c-4.5,48.1,23.4,78.4,58,104c6.7,4.9,18.3,3.3,27.6,4.6"/>
	<path class="st2" d="M2829.9,1461c35.4-11.2,53.8-36.3,62.7-71.7c9.7-38.4,21.6-76.4,34.4-113.9c6.1-18.1,5.8-34.4-6.6-47.9
		c-13-14.1-30.5-17.6-49.6-12.6c-30.6,8-59.5,19.2-84.2,39.8c-30.9,25.8-28.4,61.3-28.1,96c0.1,14,1.6,28.1,3.9,42
		c2.4,14.8,3.6,30.9,10.3,43.8c11.1,21.4,32.3,26.5,55.3,24.5"/>
	<path class="st2" d="M1597.3,459.8c58.4-15.2,98.1-53.6,123.9-105.9c17.9-36.1,25.2-76.4,12.1-115.5c-9.2-27.5-30.4-45.1-63-47.1
		c-26.2-1.6-50.8-1.6-74.2,12.2c-29.9,17.7-39.5,47.4-45.8,78.1c-6,28.9-8.7,58.6-12.7,87.9c-1.7,12.6-3.8,25.3-4,38
		c-0.7,34.3,17,51.8,51.6,52.2c3.3,0,6.7,0,10,0"/>
	<path class="st2" d="M2565.8,411.3c12.7-9.3,25.9-18,38-28c20.4-16.8,40.9-33.8,60-52c8.3-7.9,13.3-19,19.3-27.9
		c-5-18.9-20.6-19.6-30.5-15.1c-38.8,17.4-75.1,39.9-102.2,73.3c-15,18.4-10.8,40.1,5.5,49.6c2,1.2,5.2,0.2,7.9,0.2"/>
	<path class="st2" d="M3101.9,409.3c30.9-24.3,33.3-56.9,3.9-77.5c-9.3-6.5-23.2-6.2-34-8.8c-16.4,11.4-22.3,24.8-19.8,42
		c4,27.8,23,39.1,47.9,44.2"/>
	<path class="st2" d="M1625.5,403.8c36.8-11.5,62.5-35.2,73.9-71.9c5.7-18.5,9.9-37.5,3.2-58.1c-7.2-21.9-21.7-34.1-42.5-37.6
		c-24.2-4-46.4,2.6-62,23.4c-25.7,34.2-27.9,72.4-16.3,111.9c5.9,20,19.2,32.6,41.7,32.2"/>
	<path class="st2" d="M429.2,1456.1c41-17.2,67-49.5,86.2-87.8c11.2-22.3,9.4-26.9-9.7-44c-28.9-1.9-51.3,14.7-73.7,28.4
		c-14.9,9.1-26.3,24.1-38.4,37.3c-12,13.1-10.6,28.8-4.1,43.8c7,16.2,19.4,24.6,37.8,22.2"/>
	<path class="st2" d="M1879.8,877.1c2-1.3,4-3.7,6-3.8c69.6-3.4,106.4-50.5,138.2-103.8c7-11.7,11.3-25,16.3-37.8
		c11.7-30,0.1-54.5-19.8-76c-63.8-69-146.9-48.8-195.7,13.4c-44,56.2-35.8,117.2-8.8,177.7c11.7,26.3,37.3,28,61.7,30.3"/>
	<path class="st2" d="M1079.7,846.1c5.3-1.3,10.6-3.1,16-3.9c26.3-3.7,36.7-31.8,22-51.9c-18.6-25.7-49.2-34.3-77.9-24.6
		c-16.1,5.4-25.7,16.2-27.7,32.1c-1.9,15.7,7.6,26.2,21.6,31.9c14.4,5.9,29.3,10.9,43.9,16.3"/>
	<path class="st2" d="M2699.3,1076.3c22.7-8.6,45.2-17.9,68.2-25.6c32.1-10.7,57.1-29.6,72-60c21.4-43.5,56.9-73.9,94.7-101.4
		c50.1-36.4,71.4-86.2,74.4-146.1c2.2-44.7-5-87.6-23.9-128c-9.4-20.1-20.3-39.6-43.5-48.6c-23.3-9.1-35.9-7.6-54.1,10
		c-22.2,21.4-28.1,50.6-38.4,77.9c-12.7,33.3-28.3,65.2-68.2,71.4c-20.9,3.2-42.8,3.9-63.9,1.8c-55.7-5.7-88.7,25.3-114.1,68.2
		c-15.5,26.2-12.9,55.5-6.4,83.8c11.2,49.5,22.3,99.2,35.7,148.2c10.6,38.6,25.7,48.2,65.5,48.4"/>
	<path class="st2" d="M2699.1,1124.3c43.4-15.8,86.9-31.4,130.2-47.7c27.1-10.2,48.1-28.4,57.9-55.8c13.1-36.4,32-67.3,64.5-89.9
		c46.2-32.1,62.7-81.4,72.5-133.6c4-21.1,9.4-42.9,7.7-63.9c-4.8-58.2-13.8-115.5-46.4-166.5c-19.3-30.1-46.3-48.6-80.2-53.5
		c-34.6-5-56.1,9.3-68,51.1c-7.2,25.2-12.7,50.9-20.6,75.9c-11.3,35.6-29.3,48-66,47.9c-10,0-20.2,1.1-30-0.3
		c-60.1-8.3-100.3,24.6-136.1,65.9c-7.8,9-13.2,20.1-20.4,29.7c-24.9,33.4-15.1,67.1-0.1,100c21.9,48,28.4,98.2,27.5,150.3
		c-0.4,19.8,4.5,38.6,15.2,56.3c13.6,22.5,32,34.4,58.2,34.1c10.7-0.1,21.3,0.1,32,0.1"/>
	<path class="st2" d="M1153.7,310c8-2,16.3-3.1,24-6c60.5-23.2,90.7-86.6,84.1-143.6c-1.6-13.8-6.8-29.8-15.9-39.6
		c-26.7-28.7-51.7-59.9-87.2-78.7c-25.7-13.6-47.6-0.2-65.6,15.9c-34.3,30.6-46.9,69-39.6,115.7c3.9,25.3,3.7,51.1,12.1,76.1
		c11.4,33.8,34.5,50.8,68.2,56.2c6.1,1,12,2.7,18,4"/>
	<path class="st2" d="M1591.1,1040.1c20.8-6.9,35.5-19.5,41.2-41.7c-7.4-15.2-20.3-24.6-34.8-21.5c-23.3,5-50.3,9-54.8,41.9
		c9.3,19.9,26.8,22.9,46.4,21.3"/>
	<path class="st2" d="M1528.9,543.6c22.7-8.6,45.1-18.2,68.2-25.6c46.5-14.9,80.1-46.3,108-84c31-41.9,52.7-88.1,65.6-139.5
		c12.8-51.4,1.2-95.7-31-133.8c-22.3-26.4-56.9-29.8-89.1-24.1c-26.1,4.6-52.1,13.9-76,25.5c-34.4,16.7-44.1,51.4-52.5,85.3
		c-9.9,40-15.5,81.5-44.6,113.9c-10.7,12-21.2,24.2-32.2,35.8c-13.9,14.7-22.7,32.4-23.7,52c-1.8,33.4,22.8,73.2,53.1,86.7
		c17.3,7.7,34.5,7.6,52.2,7.7"/>
	<path class="st2" d="M1891.9,845.1c48-9.7,80.4-40.9,106.1-79.8c14.3-21.7,22.6-47,10-71.5c-14.7-28.6-40.1-43-73.3-44.9
		c-52.3-2.9-96.2,39.7-105.7,86.1c-4.3,21.2-3.7,44.3-0.3,65.8c5.1,31.5,25.2,44.2,61.2,44.4"/>
	<path class="st2" d="M2399,1131.2c27.1-18.1,29.2-49.5,39.8-76.1c5.4-13.6,5.5-29.2,8.8-43.8c3.6-16.3-2-27.9-12.6-34.7
		c-22.8-4.8-40.3-0.2-55.4,12.4c-19.7,16.5-33.7,37.3-39.9,61.9c-8.1,31.7,25.6,77.4,57.4,80.2"/>
	<path class="st2" d="M2727.6,992.3c39.3-7.5,62.6-34.3,84.9-65.3c23.7-32.9,58.1-55.4,93.8-73.8c53.7-27.6,74-73.7,73.7-130.1
		c-0.2-28.8-6.7-57.6-24.9-82.3c-16.7-22.6-40.9-22.7-53.9,2c-13.3,25.3-23.9,52.1-36.7,77.7c-17.6,35.3-45.7,53.6-86.1,51.9
		c-21.3-0.9-42.7-0.6-64-0.2c-7.4,0.2-14.9,1.6-22,3.9c-44.1,14.1-64,51.4-52.4,97.7c4.9,19.5,10.3,38.8,15.8,58.1
		c10.1,35.3,31.5,57.6,69.8,60.3"/>
	<path class="st2" d="M1462.7,1143.7c29.4-5.2,58.5-12.2,88.1-15.2c26.7-2.6,53.5,0.3,80.2-7.7c24.7-7.4,42.1-21.5,56.2-42.2
		c12.4-18,27.7-34,39.7-52.2c18.4-28,46.4-39.9,76.6-44.9c33.5-5.5,67.9-7.6,102-7.7c28-0.1,56,6.9,84,7.3
		c54.9,0.9,70.1-21,77.5-65.5c11.8-71.3,39.9-135.2,77.6-195.7c26.6-42.7,55.2-84.3,79.7-128.2c10.1-18.1,14.4-40.6,16.3-61.6
		c2.7-30.4,1.5-61.3,0.7-92c-0.3-13.4-2.2-27.1-5.9-40c-8.3-29.6-26-42.8-59.6-44.2c-52.1-2.1-103.1,7-151.8,24.3
		c-17.6,6.3-33.5,22.2-46.1,37.2c-42.5,50.3-96.7,76.8-160.8,84.9c-19.2,2.4-38.6,3.2-58,3.8c-24.7,0.8-36.9-13.7-27.5-39.9
		c10-27.8,22.7-54.7,34-82.1c12.9-31.3,27.8-61.9,37.8-94.1c12.2-39,2.5-77.3-13.1-113.9c-18.4-43.2-49.2-75.7-89.9-97.9
		c-17-9.2-36-14.8-56-1.1c-31.9,21.9-66.3,40.1-97.8,62.4c-37.1,26.2-50.5,66.5-56.6,109.5c-4.5,31.8-16.3,59.6-40.2,82
		c-16.8,15.8-33.7,32-48.1,49.9c-29.6,37-25.2,79-10.2,119.6c14.9,40.5,44.8,69.8,81.2,92.6c38.6,24.2,75.1,10.2,109.8-8.2
		c21.3-11.3,42-20.4,67.1-19.1c19.4,11.7,23.6,30.8,23.2,52c-0.3,13.3,0.6,26.7-0.3,40c-2.8,41,6.3,79.6,18.8,118.4
		c7.3,22.5,8,47.8,8.1,71.8c0.1,30.5-26.1,51.8-63.7,58c-32.9,5.5-66.5,9.7-97.9,20.2c-42.6,14.3-72.9,45.1-95,84.7
		c-12.5,22.4-22.4,45.3-27.8,70.2c-5.4,25.2,14.3,52.4,45.7,64.2"/>
	<path class="st2" d="M623.1,952.5c29.1-25.5,32.6-49.5,12.3-86c-29.1-4-40.1,14-40.3,70c7.3,4.5,16.6,10.3,25.9,16"/>
	<path class="st2" d="M1894.7,1169.3c14.1-8.2,29.8-12.9,40.5-27.6c26.8-36.7,15.7-79.1-23.9-98.6c-46.4-22.8-100.9-15.7-130.1,17.8
		c-13.9,15.9-20.8,34.4-18.3,55.9c2.2,19,15,35,36,39.9c30.8,7.2,61.6,15.7,93.9,12.6"/>
	<path class="st2" d="M1218.3,1226.9c26.4-9.7,21.6-32.9,19.6-51.9c-4.7-44.4-23.4-82.9-63.4-105.7c-16.6-9.5-35.5-21.4-57.7-11
		c-24.7,11.6-36.1,37.3-28.3,64.1c10.2,34.9,36.1,55.9,63.6,76.6c19.5,14.7,39.6,26,64.2,27.9"/>
	<path class="st2" d="M381.9,1251.8c12.7-6.6,26.9-11.4,37.8-20.2c26.1-21,28.8-53.3,8.6-79.7c-36.8-48.1-109.6-59.4-160-24.6
		c-21.6,14.9-24.5,43.3-10.2,70c16.6,31,48.2,39.7,77.9,49.8c13.6,4.6,29.1,3.3,43.8,4.7"/>
	<path class="st2" d="M1871.7,905.1c14-2.6,27.9-5.8,42.1-7.7c41.1-5.6,73.2-24.9,96.4-59.7c20.8-31.2,39.9-62.8,55-97.6
		c20.8-47.9,7.6-85.3-26.6-118.3c-29.7-28.7-62.9-52.8-107.6-48.5c-69,6.5-142.1,51-162.7,131.3c-9.5,36.9-0.2,72.3,5.8,108.1
		c1.9,11.4,2.2,23.3,6.2,33.9c16.7,45.2,31.2,55.5,89.5,58.5"/>
	<path class="st2" d="M1371.6,891.2c43.4-21.2,86.9-42.2,130.2-63.7c5.9-2.9,11.4-7.2,16-11.9c11.6-12.1,10.5-32.3-3.9-39.5
		c-24.9-12.3-51.3-18.1-79.8-13.1c-19.6,3.4-40.1,1.8-59.9,4.5c-16.9,2.3-33.7,6.8-50,11.7c-19.3,5.8-25.9,20.3-24.3,39.7
		c1.6,20,9.1,37.6,19.9,54.1c12.1,18.3,30.4,19.9,49.9,18.2"/>
	<path class="st2" d="M1590.9,1096.2c58.1-8.8,84.3-54.5,112.2-97.8c10.7-16.6,19.4-34.1,40.4-39.6c4.5-1.2,9.3-1.8,14-2
		c66.7-2.5,133.4-4.3,200.1-7.6c42.4-2.1,73.3-21.7,88.4-63.4c21.2-58.9,50.2-114.2,77.8-170.2c18-36.7,30.5-76.4,55.6-109.2
		c18.7-24.5,35.1-49.9,39.4-80.3c5.1-36.3,7.7-73.1-9-108.1c-12.1-25.4-32.7-36.4-59.9-36.2c-24.3,0.2-48-0.4-72.3,7
		c-31.6,9.6-53.8,28.5-72.1,54.5c-22.7,32.4-52.2,53.2-92,62.5c-42.8,9.9-85.1,23.5-126.1,39.5c-30.1,11.7-52.8,33.2-63.1,66.9
		c-9.9,32.3-20.4,64.6-19,98.1c1.2,28.2,7.8,56.6,15.3,84c9.4,34.2,9.4,68.1,2.9,102.2c-4.4,23-23,36.1-47.9,35.8
		c-43.4-0.4-86.2-0.3-128.3,15.1c-48.1,17.6-72.5,52.5-79.6,100.4c-3.5,23.4,8.5,40,39.3,43.7c27.1,3.2,54.6,3.2,82,4.7"/>
	<path class="st2" d="M75.5,798.3c53.3-16.8,96.5-48.7,127.5-94.2c12.4-18.2,18.3-43,20.3-65.4c3.3-37.7,0.3-76,1.7-114
		c0.6-17.4,5.8-34.6,7.7-52c3.6-34.3-16.8-62.6-55.6-58.2c-22,2.5-44.1,4.5-66,7.9c-26.1,4.1-52.9,5.9-74.3,25.4
		c-18,16.4-18.9,34.5-12.3,56.3c9,29.9,21.4,59.8,15.7,92c-4.7,26.2-11.4,52.2-18.1,78c-9,34.1-7.3,66.7,9.7,98.2
		c9.2,17.1,21.4,28.1,42,26.1"/>
	<path class="st2" d="M1161.8,274c36.3-12.7,48.9-46.5,43.9-75.8c-5.8-33.8-21.3-61.5-57.3-72.4c-21.9-6.7-44.8,0.5-53.6,22.1
		c-12.6,30.8-12.9,63.3,1.5,93.7c12.3,25.9,35.1,35.8,63.5,32.4"/>
</g>
<g id="j3nFdv.tif">
	
		<image style="overflow:visible;" width="630" height="338" id="Layer_0" xlink:href="E170630C19A8CDF4.png"  transform="matrix(0.5 0 0 0.5 1503 1699)">
	</image>
</g>
</svg>
