<?xml version="1.0" encoding="utf-8"?>
<!-- Generator: Adobe Illustrator 27.5.0, SVG Export Plug-In . SVG Version: 6.00 Build 0)  -->
<svg version="1.1" id="Layer_1" xmlns="http://www.w3.org/2000/svg" xmlns:xlink="http://www.w3.org/1999/xlink" x="0px" y="0px"
	 viewBox="0 0 1699 852" style="enable-background:new 0 0 1699 852;" xml:space="preserve">
<style type="text/css">
	.st0{fill:#E6E9F4;}
	.st1{opacity:0.26;}
	.st2{fill:none;stroke:#F97AD7;stroke-width:3;stroke-linecap:round;stroke-linejoin:round;stroke-miterlimit:10;}
</style>
<rect x="-1" y="-3.1" class="st0" width="1706" height="854.1"/>
<g class="st1">
	<path class="st2" d="M1408.6,848.7c2.2-7.1,4.2-14.3,6.5-21.3c4.6-13.8,14.5-20.9,28.8-21.3c19.5-0.5,39.4,0.7,58.6-2.3
		c30.1-4.8,51-22.5,60-52.6c6.8-22.7,13.9-45.4,20.4-68.2c3.8-13.3,4.8-26.8,1.3-40.5c-2.9-11.3-15-21.2-26.5-23.7
		c-19.8-4.4-37.6,2.6-55.4,8.7c-11.5,4-22.1,10.4-33.2,15.6c-21.2,10-29.8,28.1-29.7,50c0,26.2-2.6,51.4-13.2,75.7
		c-7,16.2-24.7,25.6-41.9,22.5c-9.6-1.8-19.8-0.4-29.8-0.4c-20.6-0.1-41.3,0.6-61.8-0.5c-13.9-0.8-27.7-5.4-41.6-6
		c-21-0.9-40.4-6.7-59.6-14.3c-25.1-9.9-50.1-20.1-75.6-28.9c-14.4-5-28.3-21.7-29-40.8c-0.6-18.4,5.9-33.2,15.4-48
		c9.3-14.4,16.9-29.9,26-44.5c5.6-9,12.1-17.6,19.3-25.5c9-9.8,18.9-11,30.6-3c13,8.8,25.1,18.9,37.3,28.8
		c19.4,15.7,37.4,32.8,62.7,40c18.8,5.4,36.7-2.5,39.5-24.8c2.1-16.3,2.5-32.7,4.8-49c1.5-11.1,4.9-22,7.4-33.1
		c2.9-13,5.3-25.9-1.9-38.4c-6.7-11.5-16.7-17.2-29.8-19.4c-22.8-3.9-40.8,4.9-57.7,19c-17.8,14.8-35.6,29.8-57.6,38.3
		c-10,3.8-18.9,2-27.8-4.2c-27.7-19.3-39.8-51.3-33.1-86.7c5.8-30.4,23.2-53.6,40.1-77.7c12.2-17.4,24.8-34.8,35-53.4
		c5.5-9.9,7.5-22.3,8.8-33.9c1.5-13.3,1.1-27,0.3-40.5c-1.3-24.7,5.5-47.9,10.9-71.4c0.9-4.1,0.2-8.5,0.2-13.1
		c-10.8-8.9-22.8-5.5-34-1.7c-27.8,9.3-56.2,15.2-85.4,17.7c-11.1,0.9-22.2,1.9-33,4.2c-15.6,3.3-27.7,12.4-37.6,25.2
		c-10.6,13.8-22.5,26.7-40.5,30.7c-6.2,1.4-12.9,1.8-19.1,0.9c-9.1-1.3-13.6-12.3-9.4-23.2c6-15.8,13-31.2,19.2-46.9
		c9.4-23.5,6-46.1-2.5-69.4c-11-30-29.4-54.7-49-79c-5-6.3-8.6-13.8-12.8-20.7"/>
	<path class="st2" d="M1433.1,849.9c12.5-13.1,28.9-16.5,45.9-17.9c29.3-2.4,56.6-9.8,77.9-31.8c14.2-14.6,21.3-33.1,26.7-52.2
		c5.3-18.6,10.2-37.5,14-56.5c3.9-19.7,6.1-39.6,1.6-59.7c-1.2-5.6-0.6-11.6-2.4-17c-1.8-5.7-4.6-11.5-8.5-15.9
		c-4.1-4.7-9.8-2.9-15.8-1.6c-15.8,3.4-32.3,3.7-47.8,8c-18.6,5.1-36.5,12.7-54.5,19.8c-10.9,4.3-21.1,10.5-32.1,14.5
		c-17.4,6.4-24.8,20.3-31.1,36.2c-8.3,20.8-17.7,41.3-26.7,61.8c-5.3,12-16,17.7-27.8,18.8c-21.2,1.9-41.2,9.3-61.9,12.4
		c-32.7,4.9-65.8,6-96.9-9.5c-22.7-11.4-45.5-22.8-68.1-34.4c-18.4-9.5-19.2-30.6-10.1-44.5c12.1-18.5,25.6-36.7,44.6-49
		c13.8-9,29.4-7.3,43.5-0.8c18.6,8.6,35.9,19.8,54.5,28.5c16,7.5,32.2,15.3,51,14.5c18.9-0.9,34.6-15.2,34.1-34.2
		c-0.6-18.2-3.6-36.3-3.5-54.4c0-13.1,2.6-26.4,5.3-39.4c3.8-18.6,6.4-37.3-3.5-54.2c-11.2-19.2-30.6-26.2-51.8-29.2
		c-24.9-3.5-45.4,5-63,22.2c-11.9,11.6-26.8,18.3-42.7,19.6c-13.2,1-26.5-3.9-37.1-12.6c-9.3-7.7-13.6-18.5-13.9-30.8
		c-0.6-25.1,10-45.8,24.8-64.9c14.6-18.8,29.8-37.2,43.7-56.5c10.3-14.3,14.9-31.1,15.2-48.9c0.2-13.1,0.5-26.3,0.1-39.4
		c-0.6-23.9,5.5-45.6,19.5-65c9-12.4,11.9-26.4,6.3-40.4c-5.8-14.5-28.7-23.2-44.3-17.1c-16.4,6.4-32.3,14.2-48.1,22.1
		c-16.6,8.3-34.2,11.6-52.3,12.4c-23.4,1.1-46.3-2.6-69.3-6.4c-9.6-1.6-14.4-7.3-18.1-15.2c-10.5-22.5-20.3-45.3-31.9-67.2
		c-11.7-21.9-25.2-42.8-37.9-64.3c-2.3-4-4.3-8.2-6.4-12.3"/>
	<path class="st2" d="M1052.6,847.4c-16.6-15.7-33-31.8-50-47c-22.9-20.4-35.3-46.9-45.7-74.8c-3-8-7.5-15.6-12.6-22.4
		c-15.9-21.3-34.7-40-58.5-52.2c-13.9-7.1-29.5-7.9-45.7-7.4c-24.6,0.7-46,10.5-68.3,18.4c-22.7,8-34.1,1.6-44.9-17.1
		c-10.8-18.8-14.3-39.8-20.8-59.9c-3.8-11.8-6.4-24-8.4-36.3c-1.7-10.4-1.8-21.1-2.6-30.3c20.7-12.5,39.2-23,56.9-34.6
		c21.5-14.1,43.8-26,68.4-33.9c5.8-1.9,11.3-5.5,16-9.5c13.4-11.4,14.3-21.2,3.4-35c-10-12.6-23.6-19.5-39.3-21.3
		c-13.4-1.6-27.1-0.6-40.4-2.7c-20.6-3.3-41.9,0.3-61.9-8.3c-15.3-6.6-21.4-13.9-21.1-30.1c0.7-35.5,2.2-71.1,2.2-106.6
		c0-12.8-1.3-26.4-14.3-34.4c-34.7,1.8-68.1-4.5-101.5-12.6c-12.6-3.1-26.2-2.2-38.3-3.1c-16.5,7-8.9,20.2-7,29.1
		c6.4,29.1,17.5,56.7,33,82.5c6.9,11.4,11.6,24,17.1,36.2c7.3,16.1,19.5,26.1,36.1,32.3c21.3,7.9,38.8,19.6,44,44.7
		c3.4,16.4,10.7,32,15.3,48.1c7.4,25.6-2,34.6-27.8,31.1c-32.6-4.4-64.6-13.2-98-11.6c-24.1,1.2-33.8,12.6-30.2,36.4
		c3.1,20.9,11.2,41.2,8.6,62.9c-2.4,20.2-5.1,40.4-6.5,60.8c-1.7,24.7,0.2,47.9,23.8,64.4c13.6,9.5,28.1,20,32,38.1
		c2.3,10.6,4.7,21.3,5.1,32c1,27.5,13.6,50.3,27.7,72.6"/>
	<path class="st2" d="M955.6-2.1c18.1,36,34.4,72.7,56.9,106.5c19.2,28.9,46.6,39,79,41.8c24.8,2.1,45.6-7.4,65.1-21.2
		c19.7-13.9,41.4-23.4,65.1-27.3c15.4-2.6,30.3,4.6,38.1,25.6c9.8,26.3,7.6,51.6-9.7,74.5c-15,19.9-22.2,42-20.6,67.1
		c0.8,12-0.1,24.2,0,36.2c0.3,37-16.3,65-43.8,88.6c-16.2,13.8-32.6,27.8-36,51.8c-2.6,18.1,7.6,35.5,25.9,37.5
		c13.3,1.5,24.7-3.4,35.1-10.7c6.9-4.9,13.6-10.6,19.2-17c15.2-17.4,33.5-21.8,55.7-16.9c25.3,5.6,47.9,14.9,62.7,37.7
		c15.1,23.1,16.9,48,12.9,74.8c-3,20.2-0.5,40.7,11.2,58.6c12,18.3,32.1,18.8,48.7,14.4c40.1-10.7,79.2-25,118.6-38.4
		c13.7-4.7,24.4-14.4,29.7-27.6c7.9-19.5,21.3-32.6,39.9-41.4c10-4.8,15.4-12.5,14.1-24.4c-1.2-11-2.3-22.1-1.9-33
		c0.5-12.5,3.4-24.8,4-37.3c0.8-14.9,2.1-30.1-0.1-44.7c-3.2-21.6-8.2-43.1-14.5-64c-8.2-27-26.9-46.4-50.6-61.1
		c-4.1-2.5-7.9-5.6-11.7-8.5c-14.7-11.4-16-26.5-10.4-42.6c7.4-21.5,14.9-43,23.8-63.8c10.2-24,25.9-43.1,53.3-48.9
		c16.4-3.5,32.6-7.9,49.1-10.2c15.9-2.2,28.8,5.7,40.4,15.9"/>
	<path class="st2" d="M-0.5,582.3c23.4-15.2,42.7-36.4,69.5-46.6c13.9-5.3,27.5-11.6,41.7-15.6c28-8,35.9-27.4,37.2-51.3
		c0.6-11.7-2.3-23.5-1.5-35.2c1-15,4.4-29.8,6.1-44.8c0.8-7,0-14.2,0.3-21.3c0.6-17,3.2-33.5,15.1-46.8c4.5-5,9.3-10.4,15-13.6
		c10.8-6.1,22.9,0.3,27.3,14.9c3.8,12.5,6.8,25.4,8.4,38.4c2.2,18.3,10.6,31.8,26.7,40.6c8.9,4.9,17.8,9.9,26.6,15
		c16.4,9.6,20.2,20.3,16,38.5c-4.7,20.4-9.4,41-11.8,61.8c-3.1,26.9,12,46,31.5,61.8c20.6,16.6,20.1,15.1,36.2-5
		c6.3-7.8,12.7-15.9,20.4-22.2c19.8-16,20.4-36.4,16.1-58.8c-3.2-16.6-7.3-33.3-8-50.1c-0.7-19.3,5.9-35.7,24.1-47.1
		c32.2-20.2,55.4-49.4,72.7-82.7c15.7-30.5,0.8-64.4-40-66.1c-19.3-0.8-37.7,4.3-55.3,10.8c-29.6,10.8-58.7,9.5-88.6,2.8
		c-17.1-3.8-34.7-6.2-52.2-7.6c-14.3-1.2-24.5-6.4-30.9-19.5c-9.2-18.7-17.7-37.9-28.8-55.4c-17.9-28.3-41.2-32.2-71.1-18.6
		c-20.1,9.1-38.7,21.8-60.8,26.6c-13.6,2.9-27.1,6.9-40.6,10.4"/>
	<path class="st2" d="M1099.5,847.6c-8.9-21.4-27.3-33.8-44.6-47c-10-7.6-20.8-14-30.7-21.6c-19.1-14.6-27.8-35.7-35.1-57.6
		c-5.5-16.5-11.9-32.7-17.8-49.2c-2.6-7.2-4.8-14.5-8.1-24.6c12.1-2,22-5.4,31.6-4.8c44.7,2.6,65.7-33,75.6-62
		c4.8-14.1-3-26.1-20.9-36.1c-18.1-10.2-38.1-15.5-58.5-14.8c-30.6,1.1-57.2,11-69.5,43c-1.6,4.1-4.6,7.7-6.3,11.8
		c-8.3,20.2-24.9,26-44.9,27.7c-26.9,2.3-54,1.9-80.1,11.9c-33.4,12.8-46.1-3-54-30.8c-7.3-25.7-0.1-47.7,16.8-68.4
		c15.1-18.4,30.5-36.3,52.9-45c17.4-6.8,36.2-9.9,54.2-15.2c12.2-3.6,23.9-9.5,26.4-23.3c1.6-8.5,2-18.6-1.1-26.4
		c-7.4-18.7-16.9-36.6-26.1-54.6c-4.9-9.7-13.9-12.7-24.4-13c-12.8-0.4-25.6-1.6-38.4-2.1c-17.9-0.8-31.1-10.5-41.3-23.8
		c-16.5-21.5-32.5-43.4-37.4-71.4c-6.5-37.1,1.4-63.4,30.3-86.3c14.5-11.4,23.3-25.8,23.6-44.7c0.5-25.3,11.6-44.6,32-59.8
		c15.2-11.3,30.5-23.3,38.5-41.3c2.9-6.5,3.1-14.1,4.6-21.2"/>
	<path class="st2" d="M1083.5,848.6c-21.3-17.5-42.5-35-63.8-52.5c-23.1-18.9-38.2-42.9-45.4-71.7c-4.6-18.6-15.5-33.3-26.7-48
		c-7.2-9.4-15.2-18.3-22.1-27.9c-9.3-13-21.7-18.9-37.3-19.3c-7.1-0.2-14.2-1.6-21.3-2.1c-27.7-1.8-54.1,4.3-80,13.5
		c-27.8,9.9-43,9.2-57.3-24.7c-8-19-13-39-12.3-59.7c0.2-7.9,2.5-17.8,7.6-23c16.7-17.3,34.7-33.6,53.2-49.1
		c19-15.8,43.7-19.2,66-27.7c10.8-4.1,22-8,25.8-21.1c2.5-8.5,0.1-15.9-3.2-23.5c-7.4-17.3-17.5-33.1-35.3-40.1
		c-11.8-4.7-25.3-5.2-38.2-6.9c-20.8-2.8-41.4-5.6-56.4-22.7c-2.3-2.7-5-5.4-6.3-8.6c-8.7-21.3-17.7-42.4-25.2-64.1
		c-7.1-20.3-9-41.4-4.4-62.9c1.8-8.4,2.5-17,3.4-25.6c1.7-16.1,12.8-27.1,22.8-40.1c-2.1-0.9-3.9-1.6-6.9-2.9
		c-1.9,1.3-6.2,3.6-9.3,6.8c-17.9,18.7-41.4,28-64.3,37.8c-21.8,9.3-44.3,3.9-65.9-2.3c-10-2.9-19.6-7.7-28.7-12.8
		c-10.9-6.1-13.9-16.5-15.2-28.7c-2.5-24.3-4.5-49-10.7-72.4c-6.3-23.4-10.6-46.5-9.8-70.6"/>
	<path class="st2" d="M579.4,845.7c-10.9-26.7-22.9-52.8-29.7-81.1c-4.4-18.4-17.3-31.3-31.6-42.8c-11.6-9.4-23.6-19.2-25.2-35.3
		c-1.3-12.7-1-25.6,0.1-38.3c1.2-13.2,4.6-26.2,6.2-39.5c1.4-12,1.2-24.2,2.5-36.2c2.2-19.2-5.7-36-11.6-53.4
		c-4.1-12-8.6-24-11.4-36.3c-4.4-18.7,15-34.8,35.1-29.7c28,7.1,56.1,12.4,85.2,11.1c20.2-0.9,32.3-15.9,26.7-35.2
		c-6.5-22.2-19.6-38.4-42.3-46.2c-9.2-3.2-19.1-6.9-26.3-13.2c-6.5-5.7-12.7-14.9-13.6-23.1c-3.5-32.7-17-61.9-29.1-91.7
		c-4-9.8-7.9-20.1-13.9-28.7c-13.1-18.5-32.9-22.4-54-20.5c-14.3,1.3-28.5,3.6-42.6,6.2c-15.7,3-31.6,6-46.9,10.5
		c-35.6,10.7-50.2,1.1-63.7-21.9c-10.2-17.4-24.3-29.2-42.7-36.2c-21.7-8.3-39.5-22.1-55.2-38.7c-16-17-35.2-27.4-57.4-34.7
		c-19.1-6.3-33.6-3.5-47.2,10.9c-17.2,18.2-34.6,36.4-58.7,45.6c-10.1,3.8-20.6,6.4-30.9,9.6"/>
	<path class="st2" d="M566.6,846.7c-4.9-13.2-9.4-26.5-14.9-39.4c-6.5-15.2-12.4-31-21.5-44.6c-8.5-12.8-20.1-23.8-31.6-34.3
		c-10.4-9.5-20.7-19.2-22.8-33.4c-1.7-12.2-2.1-25.2,0.2-37.2c4-21.3,8.3-42.4,11.1-63.9c2.9-21.8-0.2-41.7-9.1-60.8
		c-10.6-22.6-23.9-43.7-44.5-58.7c-15.6-11.4-21.2-35.1-6-52.4c19.6-22.4,39.7-44.2,64.1-61.7c15.4-11.1,24.7-26.7,25.4-45.7
		c0.3-9.9-3.3-20-6-29.8c-4.4-15.9-9.3-31.5-19.8-45c-15.2-19.6-35-22.9-57.7-19.3c-11.3,1.8-22.9,1.9-34.1,4.4
		c-14.4,3.3-28.5,8.3-42.7,12.4c-22.9,6.6-45.4,6.6-64.8-9c-9.4-7.7-15.8-19-24.8-27.3c-8.7-8.1-18.3-15.6-28.7-21.4
		c-16.9-9.5-32.4-19.8-44.8-35.3c-11.2-14.1-25.1-25.3-43.1-31.8c-21-7.6-38.4-3.8-55.7,8.7c-14.3,10.3-29,20.1-43.8,29.7
		c-14,9-29.5,14.1-45.8,17c-1.3,0.2-2.5,1.4-3.7,2.1"/>
	<path class="st2" d="M553.8,846.6c-5.4-22.3-17.3-41.7-27.4-62c-12.3-24.5-34.7-38.6-55.3-54.5c-13.2-10.2-22.6-38.1-19.1-54.5
		c2.9-13.3,5.3-26.9,6.5-40.5c1.6-17.3,1.7-34.8,2.5-52.2c1-20.7-6.3-37.9-21.1-52.4c-16-15.7-32.5-31-41.4-52.4
		c-11.7-28-7.3-54.8,17.1-74.8c12.3-10.1,22.5-23,33.4-34.8c10.9-11.9,21.8-23.8,32.1-36.2c15.5-18.6,16.3-40,8.6-61.7
		c-8.7-24.6-24.3-36.9-53-37.5c-23.7-0.5-46.3,4.7-68.3,13.4c-26.1,10.4-53.1,11-78.7-0.4c-39.5-17.7-73.3-43.3-100.2-77.8
		c-7.8-10.1-16.8-19.5-26.5-27.8c-16.9-14.3-36.3-13.3-55.2-4.5c-12.9,6.1-25.3,13.5-37.4,21.1C51.6,169,30.9,175.5,9.5,180.4
		c-2.9,0.6-5.7,1.4-8.5,2.1"/>
	<path class="st2" d="M1027.1,847.3c-17.7-20.3-35.4-40.7-53.1-61c-11.5-13.2-19.4-28.3-25.6-44.8c-10.7-28.2-33.4-46.1-56.9-63.5
		c-15.9-11.8-32.9-20.3-52.3-20.8c-14-0.3-28.5,2.8-41.6,9c-13.3,6.3-26.4,13.3-39.6,20c-14.3,7.3-18.9,5.4-28.9-7.5
		c-15-19.4-20.6-42.4-27.5-65.2c-6.2-20.5-12.8-41.1-21.2-60.8c-9.7-22.5-28.6-35.2-51.8-41.9c-17.1-4.9-33.8-11.4-51.2-14.6
		c-10.9-2-22.9-0.3-34,1.8c-10.8,2.1-16.2,10.6-16,22c0.2,10.3,1.9,20.6,1.8,30.9c-0.4,25.6-1.3,51.2-2.3,76.8
		c-0.9,23.6,9.1,41.3,27.4,55.7c10,7.9,19.1,17.1,27.6,26.7c6.6,7.6,8.8,17.4,8.6,27.6c-0.2,13.9-0.4,27.7-0.1,41.6
		c0.3,14.8,5.1,28.4,14.9,39.3c9.8,10.9,22.3,11.9,36.1,6.9c9.9-3.6,20.4-6.3,30.9-7.3c25.3-2.6,45.8,6.7,60.6,27.7"/>
	<path class="st2" d="M1011.1,848.3c-21.2-26.7-42.7-53.3-63.5-80.3c-5.1-6.6-7.7-15-11.9-22.3c-7.9-13.7-15.7-27.4-29.6-36.5
		c-13.8-9.1-26.6-19.9-40.6-28.7c-30.3-19.1-62.1-9.9-87.3,11.3c-9.6,8.1-18.1,17.6-28,25.3c-12,9.3-19.8,7.1-27.6-6.3
		c-12.5-21.7-17.7-46-25.2-69.4c-7.9-24.8-12.5-50.3-25-73.9c-12.9-24.6-33.2-37.7-57.9-45.6c-13.7-4.3-28.2-7.4-42.5-8.6
		c-17.2-1.4-26.6,8.1-27.7,25.1c-1.6,24.2-3.5,48.3-4.4,72.5c-0.8,21.7,7.8,39,26.2,51.4c12.2,8.2,24.5,16.7,34.9,26.9
		c12.1,12,14.4,27,11.4,44.7c-2.6,15.5-0.9,32.1,1.7,47.8c2.4,14.2,19,22.1,32.5,19.5c24.9-4.7,49.7-4,73.5,5.6
		c12.9,5.2,22.4,14.9,29.8,26.7c2.7,4.3,5.6,8.6,8.5,12.8"/>
	<path class="st2" d="M1404.3-1c1.1,0.7,3.1,1.5,3.1,2.1c-0.8,19.3,3.8,39.5-6.6,57.5c-14.7,25.5-37.6,40.9-65.1,49.9
		c-8,2.6-16.3,4.4-24.5,6.3c-14,3.3-23.5,13.4-25.7,27.7c-2.1,13.9-2.5,28.4-7.1,41.4c-4.8,13.6-13.4,26-21,38.4
		c-8.3,13.5-12.8,27.9-12.9,43.7c-0.2,26.6,1,53.1,8.4,78.9c4.4,15.6,13.1,20.3,27.5,15c23.9-8.8,48.8-16.1,69.3-31.8
		c27.4-21,58.2-37.3,83.9-60.9c7.7-7.1,19.9-10.1,30.6-12.8c16.4-4.2,29-13,36.1-27.9c16-33.8,30.9-68.1,46.4-102.1
		c14-30.8,38.1-50.1,69.4-61.8c11.5-4.3,22.1-11.1,33.2-16.7c14.9-7.6,29.8-9.3,44.8,0.1c3.3,2.1,7.1,3.6,10.6,5.4"/>
	<path class="st2" d="M1428.8-0.9c-0.6,21.5-3.6,42.4-10.6,62.9c-4.2,12.3-12.5,21.1-21.9,28.4c-20.3,15.8-41.7,29.9-67,37.7
		c-18.6,5.7-28,20.2-31.5,40c-5,27.6-10,55.1-27.2,79.2c-14,19.5-11.5,42.7-4.7,64.6c4.1,13.3,23.5,22.4,37,18.2
		c17.2-5.3,32.6-14.1,46-26.3c7.9-7.1,16.3-13.6,24.5-20.2c9.9-7.9,21.4-14.3,29.6-23.6c16-18.2,35.6-30.4,58.1-37.7
		c22.8-7.4,34.9-25.2,43.4-45c13.4-31.2,25.3-62.7,47.4-89.4c12.9-15.6,29.4-26.3,46.5-35.4c15.3-8.2,28.2-18.3,40.4-30.2
		c12.4-12.2,25.3-13.9,40.5-6.3c1.1,0.6,2.1,1.5,3.2,2.1c7.1,3.6,14.2,7.2,21.3,10.8"/>
	<path class="st2" d="M1114.3,311.4c4.4-7.1,12.2-7.3,19.2-9.6c28.4-9.5,41.1-38,31.1-65.9c-7.5-21.1-31-23.7-48.7-16.8
		c-24.1,9.4-30.2,30.6-21.7,59.2c0.3,1.1,0.9,2,1.7,3.8c-2.2,2.5-4.3,5-5.7,6.6c-8.1-1.5-14.9-2.6-21.6-4.1
		c-27.6-6-53.3,0.7-79,10.1c-16.6,6.1-31.3,14.3-42.6,27.9c-11,13.2-16.5,28.9-20.9,45.6c-5.1,19.5,3.3,37.1,4.8,55.5
		c1.1,14,4.5,28,8.2,41.6c4.9,17.6,13.8,24.1,31.7,23.5c22.4-0.8,44.8-1.9,67.1-4.1c16.2-1.6,29.7-11.2,36.9-24.5
		c15.1-27.6,32.8-53.9,41.6-84.8c6.2-21.6,6-42.2-2.2-63"/>
	<path class="st2" d="M287.4,844.6c7.9-13.8,15.6-27.7,23.6-41.5c7.8-13.4,20.6-20.4,34.1-26.6c7.4-3.4,14.9-6.9,21.3-11.7
		c12.4-9.4,14.4-18.4,7.6-32.8c-8.6-18.4-21.2-34.3-38.3-44.6c-21-12.6-31.8-30.6-35.8-53.8c-4.3-25.1-17.9-45.8-31.8-66.2
		c-9.3-13.6-13.7-28.3-13.8-44.9c-0.2-18.2,2.5-35.7,6.7-53.3c4.5-19.3-6-37.9-25.3-44.7c-11.3-4-22.4-10.4-35.2-2.6
		c-12.2,7.5-19.3,18.5-24.4,31c-4.9,12.2-9.3,24.6-12.9,37.2c-8,27.9-26.5,41.9-54.6,47c-24.5,4.5-47.8,13.3-65.1,32.6
		C31,583.7,16.6,594.3-0.6,601.5"/>
	<path class="st2" d="M1.1,145.2c5.3-2.1,10.7-4.3,16-6.3c29.2-11.3,50.2-30.5,61.1-60.5C84.9,60,92.6,53,118.7,63.5
		c24.6,9.9,49.2,19.7,70.2,36.5c11.8,9.5,23.7,18.9,35,29c12.2,10.9,27,16.3,41.6,22.5c17.2,7.4,33.9,15.4,44.9,32
		c4.4,6.6,10.7,12,16.9,17.1c7.4,6.1,16.9,5.3,25.4,4.3c16.4-2,32.7-5.6,49.1-8.1c16.3-2.4,32.7-4.3,49-6.3
		c17.4-2.1,34.9-3.6,52.2-6.6c4.1-0.7,9.7-6.2,10.4-10.3c3.2-18.3,5.1-36.8,6.9-55.4c2-20.8-5-39.8-12.4-58.7
		c-8-20.6-16-41.2-14.8-64"/>
	<path class="st2" d="M1461.9-0.8c-4.7,13.1-9.5,26.2-14,39.4c-4.1,12-6.4,24.9-12.4,35.9c-4.8,9-12.7,17.5-21.2,23.3
		c-25,17.1-51.1,32.7-76.7,49.1c-16.6,10.6-21.9,27.3-24.9,45.7c-3.6,22.3,0.7,45.6-8.5,67.2c-3.4,7.9-5.9,16.3-9.5,26.2
		c3.2,1.8,7.1,3.9,11,6.1c-0.4,1.1-0.8,2.1-1.2,3.2c5.2-1.9,10.6-3.2,15.4-5.7c15.4-7.9,31.3-15.1,45.8-24.6
		c13-8.5,25.2-18.7,36.3-29.6c13.1-12.8,26.8-23.8,44-30.6c22.9-9.2,37.1-26.4,43.9-49.9c12.6-43.4,39.9-76.1,75-103.1
		c14.2-11,29-21.3,42.5-33.2c5.2-4.6,7.4-12.5,11-18.9"/>
	<path class="st2" d="M1.2,127c24.7-3.5,53.1-25.1,54.7-53.1c0.6-9.6,2.5-19.2,4.3-28.8c3.2-17.3,17.8-24.9,34-16.8
		c14.6,7.4,28.5,16.2,42.6,24.5c19.5,11.4,39.3,22.4,58.4,34.5c10.6,6.8,20.7,14.8,29.7,23.5c17.3,16.7,39.3,23.9,60.9,31.8
		c14.8,5.5,28.4,12.6,40.2,22.9c14.2,12.3,29.9,18.7,49.1,18.4c30.7-0.5,60.6-4.4,89.6-14.7c22.9-8.2,35.9-23.7,41-47.8
		c3.9-18.3-0.6-34.4-7.8-50.1c-8.2-18.1-17.4-35.8-20.9-55.6c-1.2-6.7-2.1-13.5-3.1-20.3"/>
	<path class="st2" d="M1.8,112.1c17.5-5.5,31-15.3,35.7-34c1.8-7.3,3.1-14.9,3.2-22.3c0.2-15.3,4.2-29.1,13.1-41.5
		C63.9,0.2,76.4-3.2,92.2,7c11.6,7.5,22.5,16,34.1,23.4c15.3,9.7,30.8,19.4,46.8,27.8c20.2,10.6,38.6,23.4,55,38.9
		c17.4,16.4,37.4,26.2,60.7,31.2c24.9,5.4,44.9,21.6,67.2,32.7c16.1,8,33.7,10.7,52.1,6.1c12.5-3.2,25.9-3.1,38.3-6.7
		c22.2-6.6,39.2-19.2,46.4-43.2c5-16.6-0.3-31.2-6.9-44.7c-10.3-21.1-20.6-41.8-23.8-65.3c-0.5-3.9-0.7-7.8-1-11.7"/>
	<path class="st2" d="M187.2,844.2c-5.8-27.9-18.2-53.2-29.7-78.9c-5.2-11.7-12.3-22.6-17.7-34.3c-5.2-11.1-10.3-22.4-13.6-34.2
		c-3.9-14,9.6-23.4,26.4-19c10,2.6,20.1,5.1,29.8,8.8c11.8,4.5,22.2,0.8,31.9-4.5c11.2-6.1,22.4-12.8,31.9-21.2
		c13.3-11.8,16.3-33.8,7.7-49.7c-5.3-9.8-13-18.4-18.8-28c-7.8-12.9-15-26.3-22.3-39.5c-8.5-15.3-16.7-17.4-28.6-5.3
		c-18.5,18.7-40.5,28.6-66.2,33.2c-12.2,2.2-26.7,6.5-28.7,22.8c-0.7,5.8,1.7,12.1,2.9,18.1c1.3,6.8,3,13.5,4.1,20.3
		c1.2,7.1-1.5,13.2-8.6,14.6c-8,1.6-15.1,5.5-24.6,2.9c-15.4-4.3-31.8-5-47.8-7.1c-5.3-0.7-10.7-1.5-16-2.2"/>
	<path class="st2" d="M1490.6-0.2c-10.8,26.5-19.4,53.6-25.8,81.5c-3.2,13.9-12.5,23.3-24.8,27.2c-29.2,9.3-53.1,27.1-77.8,43.9
		c-6.3,4.3-13.1,8.3-18,13.9c-13.5,15.5-19.7,33.4-14.3,54.2c0.6,2.3-0.5,5.1,0.1,7.4c5.1,17.6,14.6,26.8,35,17.1
		c5.6-2.7,11.9-5.2,15.9-9.6c18.7-20.6,40.4-37,64.4-50.7c15.7-9,21.8-24,23.3-40.5c2.1-22.5,10.3-40.4,25.5-58
		c23.6-27.3,52.7-47,80.7-68.6c6.2-4.8,10.8-11.5,16.2-17.4"/>
	<path class="st2" d="M-0.4,554.6c20.6-11.7,41.3-23.3,61.9-35c10-5.6,20.4-10.6,29.8-17.1c13.2-9.1,13.5-18.4,2.4-29.7
		c-4.2-4.3-8.8-8.3-12.7-12.9c-7.7-9.1-8.1-22.1-0.8-30.7c7.7-9.2,16.5-17.6,25.6-25.5c15.4-13.5,24.5-30.8,27.4-50.2
		c4-26.8,14-50.8,26.1-74.6c7-13.7,8.1-28.1,5.1-43.7c-2-10.4-2.4-20.8-6.6-30.9c-9.2-22.3-26.2-27.2-46.9-22.1
		c-17.5,4.3-34,12.3-51.4,17.4c-17.2,5.1-34.8,8.6-52.2,12.8c-2,0.5-3.9,1.4-5.9,2.1"/>
	<path class="st2" d="M1702.9,528.9c-13.5-11.8-27.5-22.9-40.2-35.5c-16.7-16.5-24-37.4-24.4-60.7c-0.2-8.5-0.3-17.1,0.1-25.6
		c1.6-28.2-3.9-55.4-11.6-82.1c-5.1-17.7-9.8-36-18.4-52c-7.2-13.4-18.9-25-30.4-35.4c-17.5-15.8-21.9-34.2-15.4-55.7
		c4.9-16.2,10.7-32.3,17.2-47.9c9.8-23.3,28.4-32,53.2-33.3c26.2-1.4,48,9.4,70.3,19.9"/>
	<path class="st2" d="M104-5.8c20.6,19.8,43.2,37,69.2,49.1c17,7.9,34.3,15,48.8,27.1c8.3,6.9,16.5,14.1,24.4,21.4
		c13,11.9,28.6,17.3,45.8,19.4c22.8,2.7,43.6,11,62.9,23.5c19.1,12.5,39.5,17.7,62.9,13.6c14.2-2.5,28-4.2,40.5-12
		c18.4-11.6,27.8-32.7,15-56.4c-13.4-24.7-21.3-51.4-29.3-78c-0.6-2-0.1-4.2-0.1-6.4"/>
	<path class="st2" d="M1701.9,502.3c-16.6-9.1-31.8-20.2-40.1-37.6c-5.1-10.6-9.1-22.4-10.4-34.1c-2.1-19-0.4-38.5-2.7-57.5
		c-2-16.2-7.3-32.1-11.2-48.1c-3.1-12.5-6.5-24.9-9.4-37.4c-3.6-15.4-10.5-28.9-21.2-40.6c-6.5-7.1-13.6-13.7-18.9-21.5
		c-9.2-13.4-12.8-27.8-9-44.8c3.5-15.7,7.4-31.3,15.9-44.4c12.2-18.8,36.7-24.2,62.5-13.7c15.6,6.3,30.6,14.2,45.8,21.3"/>
	<path class="st2" d="M1702,483.1c-17.6-11.2-30.6-26.1-34.9-47.1c-2.6-12.6-3.7-25.1-1.6-38.4c3.2-20.1-1.8-39.6-9.6-58.7
		c-7.6-18.6-11.4-38.4-13-58.6c-1.2-15.5-5.9-29.9-16.8-41.7c-5.1-5.5-9.8-11.5-14.9-17.1c-16.5-17.9-14.9-37.9-7.2-58.7
		c10.9-29.3,39.1-27.3,62.9-13.5c15.4,8.9,27.2,21.8,37.2,36.3"/>
	<path class="st2" d="M207.4,845.3c-1.4-4.6-2.6-9.3-4.2-13.9c-4.5-12.5-8.1-25.4-13.9-37.3c-9.2-18.5-17.4-37.1-21.1-57.7
		c-2.2-12.3-0.3-19.3,11-22.2c31.6-7.9,57.8-25.6,83.1-44.8c8.3-6.3,12.2-15.3,13.3-26.4c2.6-26.1-10.1-46.3-23.7-66.1
		c-13-18.9-18.9-39.6-21-62c-0.9-10-1.6-20.3-4.5-29.8c-1.9-6.4-7.6-11.6-11.4-17c-16.8,4.7-23.7,16.5-31,28.4
		c-7.6,12.4-15.7,24.6-24.7,36.1c-11.7,15-29.3,18.4-46.8,21.2c-25.8,4.1-47.8,14.3-57.5,40.4c-7.7,20.9-24.4,24.1-42.9,25.5
		c-4.3,0.3-8.5,2-12.8,3"/>
	<path class="st2" d="M795.8,847.5c-19.6-18.7-35.7-39.5-43.9-66.1c-2.6-8.4,0.2-14,2.8-20.4c9.2-22.5,18.9-45,37.5-61.7
		c19.2-17.3,40.5-19.4,61.7-6c17.7,11.1,35.1,23,50.8,36.6c9.7,8.5,17.3,20.3,23.4,31.8c9.7,18.4,25,31.9,37.4,48
		c9.5,12.3,18.4,24.9,27.6,37.4"/>
	<path class="st2" d="M1304.6,717.2c-3.6-12.8-12.8-21.6-23.5-27.5c-23.5-13.1-46.4-27.2-73.2-33.9c-24.1-6-40.3,2.3-54.5,19.3
		c-2.8,3.3-5.4,6.9-7.5,10.6c-4.6,8.4-6.3,18.9,0.2,25.2c26.7,26.3,57.8,45.5,96.5,47.2c10.9,0.5,22.5-2.4,32.9-6.2
		c15.3-5.6,26.2-16.5,29-33.7"/>
	<path class="st2" d="M976.9-2.1c5.6,15.5,10.4,31.4,17.1,46.4c13.1,29.4,29.3,57.4,58.4,73.5c29.5,16.3,59.7,14.9,88.3-4.6
		c13.4-9.1,26.8-18.2,40.6-26.4c15.7-9.4,24.4-22.6,28-40.5c3.3-16.2,8.4-32,12.7-48"/>
	<path class="st2" d="M981.2,848.2c-15.1-29.7-43.9-48.4-61.4-76c-13.1-20.8-29.7-37.2-51.1-49.3c-8.6-4.9-16.1-11.7-24.6-16.9
		c-24.3-14.9-44-0.1-53.3,15.7c-19.1,32.6-18.2,69.5,8.1,98.1c8.3,9.1,16.3,18.5,24.4,27.8"/>
	<path class="st2" d="M1549.3,849.3c10-11.7,21.5-22.5,29.5-35.3c7.4-11.8,11.9-25.8,16.4-39.2c6.4-19,12-38.2,17.3-57.5
		c2.1-7.5,2.9-15.6,3.3-23.4c1.1-21.3,0.6-42.8,2.8-63.9c2.2-20.6,13.3-37.7,26.6-53.2c5.4-6.3,11.7-11.8,16.5-16.6
		c16.5-2.5,29,3.6,41,11.4"/>
	<path class="st2" d="M1280.7,849.3c0-2.5,0-5,0-7.5c0.1-25.1-4.9-33.8-29.8-40.3c-32.7-8.4-64.2-19.7-95.8-31.4
		c-16.9-6.2-34.9-8.8-53.2-7.8c-4.3,0.2-8.7,0.8-12.8,2.1c-7.8,2.7-11.2,9.1-7.3,16.8c7.7,15.3,17,29.9,25.1,45
		c3.8,7.1,6.4,14.9,9.6,22.4"/>
	<path class="st2" d="M1000.4-2.5c-1.5,40.8,17.1,73.1,47,97.7c22.1,18.3,49.5,22.5,76.2,7.1c18.3-10.5,36.7-21.2,53.2-34.2
		c12.4-9.8,16.8-26.2,21.6-41.1c3-9.3,4.5-19.1,6.7-28.7"/>
	<path class="st2" d="M1600.5,849.4c2.2-9.2,6-18.4,6.2-27.7c0.7-36.6,13.3-69.8,25.6-103.6c4.7-13,3.1-29,1.6-43.4
		c-2.8-27.3,1.5-61.2,27.3-75.6c13.2-7.4,27-9.4,41.6-5.2"/>
	<path class="st2" d="M422.7-4.1c12,29.7,24.5,59.2,35.7,89.2c8.7,23.4-5.2,41.3-29.8,43.8c-34,3.5-61.3-10-86.2-30.6
		c-16-13.2-33.5-14.8-53.4-11.3c-11.1,2-22.7-3.4-30.6-11.6c-19.4-20-42.8-31.7-69.2-39.9c-25.2-7.9-46.1-24.3-66-41.4"/>
	<path class="st2" d="M966.3,848.2c-12.6-20.9-32.3-35.2-48.8-52.5c-6.4-6.7-12.3-14.1-18.1-21.4c-17.7-22.2-41.4-36.4-66-49.1
		c-10.2-5.2-19.3-0.8-25.5,9.3c-9.4,15.3-7.7,30.8-2.4,47c5.8,17.9,17.8,31.3,29.9,44.8c6.5,7.3,13.4,14.3,20.1,21.4"/>
	<path class="st2" d="M543.2,846.6c-13.2-37.6-29.3-73.2-67.9-91.8c-10.2-4.9-21-8.9-31.9-11.7c-7.8-2-15.4,0-21.4,7
		c-14,16.6-31,28.9-51.2,37.3c-12,5-24.1,10.3-35.2,17c-15.2,9.3-23.7,24.5-31.2,40.2"/>
	<path class="st2" d="M1632.4,850.6c-2.1-12.4-3.6-25-6.4-37.3c-4.9-21-0.6-40.6,7.9-59.7c3.3-7.4,7.2-14.6,11.8-21.3
		c12.2-17.6,11.8-36,5.6-55.6c-3.7-11.7-5.2-23.9-1.2-36.2c6.8-21,24.3-32.3,45-31.8c2.5,0.1,5,0,7.5,0"/>
	<path class="st2" d="M1246.6-1.6c-16.3,29.8-15.7,70.6,20,84.1c34.9,13.2,69.7,15.6,100-11.4c12.2-10.9,20.2-25,19.5-42.4
		c-0.4-10-1.3-19.9-2-29.9"/>
	<path class="st2" d="M175.5,845.2c-1.4-3.2-3.2-6.3-4.2-9.6c-10.8-36.7-30.9-68.7-49.7-101.5c-5.4-9.4-10.3-19-14.8-28.8
		c-11-23.6-30.1-33.9-55.4-34.3c-17.4-0.2-34.8-0.2-52.2-0.2"/>
	<path class="st2" d="M1662.3,849.7c-6.1-15.4-16-28.9-19.5-45.8c-4-19.5-1.2-36.9,10.5-52.1c7.4-9.6,17.5-17.2,26.5-25.7
		c2.4-2.2,5.2-4.1,7.4-6.4c7-7.4,7.1-14.3,1.2-22.4c-5.1-7-11.1-13.7-14.7-21.4c-12.6-27.2-0.1-47,28.8-49.9"/>
	<path class="st2" d="M1050.5-2.3c-4.6,5-9.6,9.6-13.8,14.9c-9.7,12.2-6.9,24.8-0.2,37.3c13.2,24.5,32.2,40.6,61.6,38.4
		c20.9-1.6,38.3-12.5,54.5-25.2c18-14.1,26.7-33.5,31.1-55.3c0.7-3.2,1.4-6.4,2.2-9.6"/>
	<path class="st2" d="M533.6,846.5c-8.1-14.2-15.8-28.7-24.5-42.7c-8.1-13.1-18.8-23.9-33.9-28.9c-14.7-4.8-29.7-3.6-43.6,2.1
		c-23.5,9.7-46.3,21-69.5,31.5c-17.3,7.8-30.5,20.3-40.6,36.1"/>
	<path class="st2" d="M161.6,845.2c-4.2-12.5-6.7-25.8-13-37.2c-16.3-29.7-34.5-58.4-51.5-87.8c-26.2-45.3-75.7-33.6-98.1-5.7"/>
	<path class="st2" d="M1257.3,849.2c0.1-21.8-6.8-32.4-27.6-39.4c-23.9-8.1-48.2-15.3-72.4-22.7c-4.8-1.5-9.9-2.7-14.9-3.2
		c-11.8-1.1-21.1,2.9-25.8,15.1c4.9,16.4,9.9,33.1,14.9,49.8"/>
	<path class="st2" d="M662.5-3.8c15,16,28.8,32.6,37.3,53.4c13.2,32.1,2.3,59-16.7,84.1c-7.1,9.4-15.6,17.9-24.5,25.5
		c-22,18.8-47.4,19-73.4,10.4c-23.4-7.7-35.4-26-37.4-51.2c-1.3-16.8-6.8-33.4-7.6-50.2c-0.8-16.6,1.1-33.5,3.3-50
		c1-7.7,5.4-14.9,8.3-22.4"/>
	<path class="st2" d="M153.1,845.1c-3.1-18.6-12.8-34.5-22.4-50.1c-13-21.1-27.1-41.6-41.3-62c-4.7-6.7-10.5-13.1-17-18.1
		c-12.1-9.3-32.9-8.7-46.6,4.1c-9.7,9.1-18,19.7-26.9,29.6"/>
	<path class="st2" d="M519.7,846.5c-8.7-25.6-21.3-48.5-48.9-57.5c-14.3-4.6-28.7-0.7-42.6,4.8c-24.6,9.8-50.2,17.3-71.4,34
		c-6.5,5.1-12.2,11.2-18.2,16.9"/>
	<path class="st2" d="M414.9,98.7c5.7-2.9,11.3-5.8,15.6-8c2-21.6-3.6-38.4-14.3-53.8c-6.1-8.8-20.4-15.1-28.7-12.9
		c-9.6,2.5-16.7,11.3-18.2,22.3c-2.5,18.1,12.6,41.8,30.7,48.1c4.6,1.6,9.2,2.9,13.8,4.3"/>
	<path class="st2" d="M145.6,845.1c-7.4-13.5-13.9-27.7-22.4-40.5c-13-19.4-27.2-38-41.3-56.7c-3-3.9-7.3-7.2-11.6-9.6
		c-14.4-7.9-21.5-8.2-35,3.1c-12.6,10.6-24,22.5-36,33.8"/>
	<path class="st2" d="M133.9,845.1c-3.3-14.3-11.5-26.1-20.2-37.3c-11.2-14.3-22.4-28.7-35.1-41.6c-16.2-16.5-29-11.6-44.4-0.2
		c-12.3,9.1-23.6,19.7-35.4,29.6"/>
	<path class="st2" d="M1103.7-2.1c-11.1,15.3-24.2,29.5-25.2,49.5c13.2,15.1,25.8,16.9,43.2,9.4c26.2-11.3,37-31.2,36.4-58.7"/>
	<path class="st2" d="M508,846.5c-3.9-6.4-7.6-12.9-11.7-19.2c-14.2-22.1-35.8-29.3-61.7-21.6c-28,8.3-54.1,20.1-75.8,40.3"/>
	<path class="st2" d="M721.1-3.5c2.3,16.2,5.1,32,12.3,47.1c7.4,15.7,19,19.3,33.2,13.7c28.2-11,49.1-28.9,54.6-60.5"/>
	<path class="st2" d="M1299.9-1.4c-11.7,9.5-14.4,23.3-11.3,36.1c3.8,15.7,15.8,26.3,32.4,28.9c16.7,2.6,32.5-13.8,37.5-28.4
		c4.4-12.6-0.2-24.3-2.1-36.3"/>
	<path class="st2" d="M1703.1,467.1c-17-12-22.8-29.8-24-49.2c-0.5-8.4,1.5-17.4,4.3-25.5c4.6-13.3,2.9-25.1-3.1-37.5
		c-6.8-14.2-13.5-28.7-17.8-43.8c-6.1-21.2-3.4-42,9.5-60.6c7.7-11,20.1-12.5,32-14.8"/>
	<path class="st2" d="M124.3,845c-9.5-13.2-18.6-26.7-28.8-39.4c-8.6-10.8-17.5-21-32.7-24.1c-11.8-2.4-19.2,4.5-27.7,9
		c-12.3,6.4-23.9,14-35.9,21"/>
	<path class="st2" d="M-0.2,519.4c20.3-2.7,40.4-5.9,54.3-22.2c2.3-22.7-13.2-35-25.3-49.2c-7.6-9-17.3-12.5-28.8-11.8"/>
	<path class="st2" d="M1693.2,850.9c-12-12.2-22.7-25.2-31-40.5c-13.7-25.3-4.1-48,15.5-60.6c7.4-4.8,16.2-7.2,24.4-10.8"/>
	<path class="st2" d="M380.1,846c19.3-17,41.9-28.3,67.3-30c14.4-1,29.5,4.3,38.2,18.7c2.2,3.5,4.2,7.1,6.4,10.7"/>
	<path class="st2" d="M109.4,845c-8.1-9.3-16.1-18.7-24.5-27.8c-12.9-14-28.6-17.8-45.6-9.6c-14.1,6.9-27.2,16-40.7,24.1"/>
	<path class="st2" d="M1231.7,849.1c-1.9-17.8-16.3-22.1-29.8-26.6c-9-3-18.4-4.6-27.6-6.6c-10.7-2.3-20.6,5.1-21.3,15.9
		c-0.4,5.3-0.1,10.7-0.1,16"/>
	<path class="st2" d="M946,847c-8.5-11.7-20.4-18.8-32.8-26c-9.4-5.5-17.5-13.7-25.6-21.2c-12.2-11.2-22-25.5-39.8-29.9
		c-2.6,2.6-5.5,5.5-10.2,10.1c7.4,9.5,14.1,19.6,22.4,28.2c12.2,12.5,26.4,23.2,33.8,39.7"/>
	<path class="st2" d="M252.2-4.8c-5.3,13-11.4,24.5-27.8,26.2c-11.1,1.2-21.5-0.9-32-3.5c-16.1-4-29-13.4-41.5-23.6"/>
	<path class="st2" d="M1018,412.3c11.8-3.9,21-10.6,24.7-23.3c2.6-9.1-2.4-16.1-11.7-17.2c-20.8-2.5-30.4,16.4-27.8,33.1
		c1.3,8.2,7.7,7.7,13.8,7.5"/>
	<path class="st2" d="M299.7,388.3c16.7-6.3,33.2-13.6,50.3-18.6c9.3-2.7,19.8-2.7,29.7-2.2c13.6,0.7,25.8-3.5,34.9-12.1
		c15.1-14.2,26-31.4,32.8-51.7c10.2-30.3-19.2-44.9-40.7-39.7c-22,5.3-43.9,11.8-66.2,15.3c-12.7,2-26.2-1.6-39.4-1.6
		c-13.9,0-28.1-0.6-41.5,2.3c-16.6,3.5-24.6,14.5-23.4,30.4c1.1,14.7,3.9,29.3,7.2,43.7c4.8,20.9,22.8,34.5,46.6,34.3
		c2.8,0,5.7,0,8.5,0"/>
	<path class="st2" d="M53.5,384.2c24.5-5.3,35.4-16.9,41.6-41.4c3-11.6-10.5-35-22.2-38.1c-4.5-1.2-10.8-0.4-14.7,2
		c-13,8.3-27.1,46.4-21.9,63.7c2.6,8.5,7.4,13.1,16.1,13.9"/>
	<path class="st2" d="M413.7,708.6c8.7-3.6,8.3-12,9.5-19.2c1.6-9.1,3.8-18.6,2.9-27.6c-0.7-6.5-4.4-13.8-13.3-15.1
		c-10.4-1.5-21.8,2.7-26.7,10.6c-3.7,6.1-5.4,11.5-1.6,19.4c5,10.5,9.6,20.9,18.6,28.5c2.4,2,6.3,2.3,9.5,3.4"/>
	<path class="st2" d="M1247,741.5c5-2.5,10.6-4.2,14.8-7.6c12.5-10,12.1-20.9,2-31.5c-12.9-13.5-29.3-22.3-48.6-25.3
		c-12.8-2-23.8-1.1-33.1,8.6c-9.4,9.8-10.1,18.6-1.1,28.8c15.5,17.4,34,28.7,58.5,26.9c2.1-0.2,4.3,0,6.4,0"/>
	<path class="st2" d="M293.5,354.2c12.8-4.6,25.3-10.8,38.5-13.2c13.5-2.4,28-3.3,41.4-0.9c23.9,4.3,47.9-12.7,48.2-36.6
		c0-2.8,0-5.7,0-8.8c-7.7-12.8-19.7-12-31.9-9.3c-11.9,2.6-23.3,7.4-35.3,9.1c-17.3,2.5-34.8,2.9-52.2,4.4c-9.4,0.8-19,1.6-26.7,8.3
		c-8.1,7.1-10.2,18.8-5.4,32c3.8,10.5,10.2,14.8,22.3,15"/>
	<path class="st2" d="M617.6,331.9c14.9-6.1,20.5-19.6,25.5-33c6.2-16.5,14.1-32.5,13.3-51.1c-0.5-12.8-5.4-22.3-17.2-26.5
		c-21.7-7.8-44-14-67-15.1c-24.5-1.2-35.4,14.4-27.8,38c9.6,29.8,27.8,54.4,47.7,78c6.3,7.4,14.6,10.8,24.4,9.7"/>
	<path class="st2" d="M1053,755.7c3.8-3.3,7.5-6.7,10.6-9.4c0.5-20.6-0.6-39.6-8.2-57.8c-4.2-10-13.5-17.2-22.4-16
		c-15.4,2-24.9,10.3-24.4,23.4c0.7,20.9,4.7,41,24.3,53.2c5.6,3.5,12.6,4.5,19,6.7"/>
	<path class="st2" d="M686.3,765c4.7-3.7,9.4-7.5,14.2-11.3c-8.5-18.9-9.4-37.1-10.2-55.8c-0.7-17.5-4.3-35-8.1-52.2
		c-4-18.3-8.9-36.6-14.7-54.4c-11.2-34.5-48.8-58.9-87-54.7c-11.4,1.2-16.2,10.1-19,19.2c-5.2,16.6-6.3,33.6-2.8,51.1
		c3,15.2,12.1,25.4,23.6,34.1c17.2,13.1,35.1,25.3,51.9,38.8c13.9,11.1,15.8,26.6,14.1,43.6c-1.3,13.5-4,29.2,11.5,36.9
		c7.4,3.7,16.8,3.3,25.4,4.7"/>
	<path class="st2" d="M611.3,291.4c16.6-9.6,24.8-29.1,19.4-44.7c-4.8-14-17.7-17.6-28.9-20.8c-12.6-3.6-27.7-8-37.2,7.7
		c-2.4,25.6,12.5,41.8,30.9,55.4c3.6,2.6,9.7,1.7,14.7,2.5"/>
	<path class="st2" d="M1506.9,774.5c18.9-6,28.7-19.3,33.4-38.2c5.2-20.5,11.5-40.7,18.3-60.7c3.3-9.6,3.1-18.3-3.5-25.5
		c-6.9-7.5-16.3-9.4-26.4-6.7c-16.3,4.3-31.7,10.2-44.8,21.2c-16.5,13.7-15.1,32.7-15,51.1c0.1,7.5,0.9,15,2.1,22.4
		c1.3,7.9,1.9,16.4,5.5,23.3c5.9,11.4,17.2,14.1,29.5,13.1"/>
	<path class="st2" d="M850.2,241.1c31.1-8.1,52.3-28.6,66-56.4c9.5-19.3,13.4-40.7,6.5-61.5c-4.9-14.6-16.2-24-33.5-25.1
		c-13.9-0.8-27.1-0.9-39.5,6.5c-15.9,9.4-21,25.3-24.4,41.6c-3.2,15.4-4.7,31.2-6.8,46.8c-0.9,6.7-2,13.5-2.1,20.2
		c-0.4,18.3,9.1,27.6,27.5,27.8c1.8,0,3.6,0,5.3,0"/>
	<path class="st2" d="M1366.2,215.3c6.8-5,13.8-9.6,20.3-14.9c10.9-9,21.8-18,32-27.7c4.4-4.2,7.1-10.1,10.3-14.9
		c-2.7-10.1-11-10.4-16.3-8.1c-20.7,9.3-40,21.2-54.5,39c-8,9.8-5.8,21.4,2.9,26.4c1.1,0.6,2.8,0.1,4.2,0.1"/>
	<path class="st2" d="M1651.8,214.2c16.4-12.9,17.7-30.3,2.1-41.3c-4.9-3.4-12.4-3.3-18.1-4.7c-8.7,6.1-11.9,13.2-10.6,22.4
		c2.1,14.8,12.2,20.8,25.5,23.5"/>
	<path class="st2" d="M865.3,211.3c19.6-6.1,33.3-18.7,39.3-38.3c3.1-9.8,5.3-20,1.7-30.9c-3.8-11.7-11.6-18.2-22.6-20
		c-12.9-2.2-24.7,1.4-33,12.5c-13.7,18.2-14.9,38.6-8.7,59.6c3.1,10.7,10.2,17.4,22.2,17.2"/>
	<path class="st2" d="M228,771.8c21.8-9.2,35.7-26.3,45.9-46.8c5.9-11.9,5-14.3-5.1-23.4c-15.4-1-27.3,7.8-39.3,15.1
		c-7.9,4.8-14,12.9-20.5,19.9c-6.4,7-5.7,15.3-2.2,23.3c3.7,8.6,10.3,13.1,20.1,11.8"/>
	<path class="st2" d="M1000.8,463.4c1.1-0.7,2.1-2,3.2-2c37.1-1.8,56.7-26.9,73.6-55.3c3.7-6.2,6-13.3,8.7-20.2
		c6.2-16,0-29-10.5-40.5c-34-36.8-78.3-26-104.2,7.2c-23.5,29.9-19.1,62.5-4.7,94.7c6.3,14,19.9,14.9,32.9,16.2"/>
	<path class="st2" d="M574.5,446.9c2.8-0.7,5.7-1.6,8.5-2.1c14-2,19.5-16.9,11.7-27.7c-9.9-13.7-26.2-18.3-41.5-13.1
		c-8.6,2.9-13.7,8.6-14.8,17.1c-1,8.4,4,14,11.5,17c7.7,3.2,15.6,5.8,23.4,8.7"/>
	<path class="st2" d="M1437.4,569.5c12.1-4.6,24.1-9.6,36.3-13.6c17.1-5.7,30.4-15.8,38.4-32c11.4-23.2,30.3-39.3,50.5-54
		c26.7-19.4,38-45.9,39.6-77.8c1.2-23.8-2.6-46.7-12.7-68.2c-5-10.7-10.8-21.1-23.2-25.9c-12.4-4.8-19.1-4-28.8,5.4
		c-11.8,11.4-15,27-20.5,41.5c-6.7,17.7-15.1,34.7-36.4,38c-11.2,1.7-22.8,2.1-34,1c-29.7-3-47.2,13.5-60.8,36.3
		c-8.3,14-6.9,29.5-3.4,44.7c6,26.4,11.9,52.8,19,78.9c5.6,20.6,13.7,25.7,34.9,25.8"/>
	<path class="st2" d="M1437.3,595.1c23.1-8.4,46.3-16.7,69.3-25.4c14.4-5.4,25.6-15.1,30.9-29.7c7-19.4,17-35.9,34.4-47.9
		c24.6-17.1,33.4-43.4,38.6-71.2c2.1-11.2,5-22.9,4.1-34c-2.5-31-7.3-61.6-24.7-88.7c-10.3-16-24.7-25.9-42.7-28.5
		c-18.4-2.7-29.9,5-36.2,27.2c-3.8,13.4-6.8,27.1-11,40.4c-6,19-15.6,25.6-35.2,25.5c-5.3,0-10.7,0.6-16-0.2
		c-32-4.4-53.4,13.1-72.5,35.1c-4.2,4.8-7,10.7-10.8,15.8c-13.2,17.8-8.1,35.8,0,53.3c11.7,25.5,15.2,52.3,14.6,80.1
		c-0.2,10.6,2.4,20.6,8.1,30c7.3,12,17,18.3,31,18.1c5.7-0.1,11.4,0,17.1,0"/>
	<path class="st2" d="M613.9,161.3c4.3-1.1,8.7-1.7,12.8-3.2C659,145.7,675,112,671.5,81.6c-0.9-7.3-3.6-15.9-8.5-21.1
		c-14.2-15.3-27.6-31.9-46.5-41.9c-13.7-7.3-25.4-0.1-35,8.5c-18.3,16.3-25,36.8-21.1,61.6c2.1,13.5,2,27.2,6.5,40.5
		c6.1,18,18.4,27.1,36.3,29.9c3.2,0.5,6.4,1.4,9.6,2.1"/>
	<path class="st2" d="M847,550.3c11.1-3.7,18.9-10.4,22-22.2c-3.9-8.1-10.8-13.1-18.6-11.4c-12.4,2.7-26.8,4.8-29.2,22.3
		c5,10.6,14.3,12.2,24.7,11.3"/>
	<path class="st2" d="M813.8,285.7c12.1-4.6,24-9.7,36.3-13.6c24.8-7.9,42.6-24.6,57.6-44.8c16.5-22.3,28.1-46.9,34.9-74.3
		c6.8-27.4,0.7-51-16.5-71.3c-11.9-14.1-30.3-15.8-47.5-12.8c-13.9,2.4-27.7,7.4-40.5,13.6c-18.3,8.9-23.5,27.4-28,45.4
		c-5.3,21.3-8.3,43.4-23.7,60.7c-5.7,6.4-11.3,12.9-17.2,19.1c-7.4,7.8-12.1,17.3-12.6,27.7c-0.9,17.8,12.1,39,28.3,46.2
		c9.2,4.1,18.4,4.1,27.8,4.1"/>
	<path class="st2" d="M1007.2,446.4c25.6-5.2,42.8-21.8,56.5-42.5c7.6-11.5,12-25,5.3-38.1c-7.8-15.2-21.3-22.9-39-23.9
		c-27.9-1.6-51.2,21.1-56.3,45.9c-2.3,11.3-2,23.6-0.2,35c2.7,16.8,13.4,23.6,32.6,23.6"/>
	<path class="st2" d="M1277.4,598.8c14.4-9.6,15.5-26.4,21.2-40.5c2.9-7.2,2.9-15.6,4.7-23.3c1.9-8.7-1.1-14.9-6.7-18.5
		c-12.2-2.6-21.5-0.1-29.5,6.6c-10.5,8.8-17.9,19.9-21.3,33c-4.3,16.9,13.6,41.2,30.6,42.7"/>
	<path class="st2" d="M1452.4,524.8c20.9-4,33.3-18.3,45.2-34.8c12.6-17.5,30.9-29.5,50-39.3c28.6-14.7,39.4-39.3,39.2-69.3
		c-0.1-15.4-3.6-30.7-13.3-43.8c-8.9-12-21.8-12.1-28.7,1.1c-7.1,13.5-12.8,27.7-19.5,41.4c-9.4,18.8-24.3,28.6-45.9,27.7
		c-11.3-0.5-22.7-0.3-34.1-0.1c-3.9,0.1-8,0.9-11.7,2.1c-23.5,7.5-34.1,27.4-27.9,52.1c2.6,10.4,5.5,20.7,8.4,31
		c5.4,18.8,16.8,30.7,37.2,32.1"/>
	<path class="st2" d="M778.5,605.4c15.6-2.8,31.2-6.5,47-8.1c14.2-1.4,28.5,0.2,42.7-4.1c13.1-4,22.4-11.5,30-22.5
		c6.6-9.6,14.8-18.1,21.2-27.8c9.8-14.9,24.7-21.3,40.8-23.9c17.9-2.9,36.2-4.1,54.3-4.1c14.9,0,29.8,3.7,44.8,3.9
		c29.3,0.5,37.4-11.2,41.3-34.9c6.3-38,21.3-72,41.3-104.2c14.2-22.8,29.4-44.9,42.4-68.3c5.4-9.6,7.7-21.6,8.7-32.8
		c1.5-16.2,0.8-32.7,0.4-49c-0.2-7.1-1.2-14.4-3.1-21.3c-4.4-15.8-13.9-22.8-31.7-23.5c-27.8-1.1-54.9,3.7-80.9,12.9
		c-9.4,3.3-17.8,11.9-24.6,19.8c-22.6,26.8-51.5,40.9-85.7,45.2c-10.2,1.3-20.6,1.7-30.9,2c-13.2,0.4-19.7-7.3-14.7-21.2
		c5.3-14.8,12.1-29.1,18.1-43.7c6.9-16.7,14.8-33,20.2-50.1c6.5-20.8,1.3-41.2-7-60.7c-9.8-23-26.2-40.4-47.9-52.2
		c-9-4.9-19.2-7.9-29.8-0.6c-17,11.6-35.3,21.3-52.1,33.2c-19.8,14-26.9,35.4-30.2,58.3c-2.4,17-8.7,31.7-21.4,43.7
		c-9,8.4-17.9,17-25.6,26.6c-15.8,19.7-13.4,42.1-5.5,63.7c8,21.6,23.9,37.2,43.2,49.3c20.6,12.9,40,5.4,58.5-4.4
		c11.4-6,22.4-10.9,35.7-10.2c10.4,6.2,12.6,16.4,12.3,27.7c-0.1,7.1,0.3,14.2-0.2,21.3c-1.5,21.8,3.4,42.4,10,63.1
		c3.9,12,4.3,25.4,4.3,38.3c0,16.3-13.9,27.6-33.9,30.9c-17.5,2.9-35.4,5.1-52.1,10.8c-22.7,7.6-38.8,24-50.6,45.1
		c-6.7,11.9-12,24.1-14.8,37.4c-2.9,13.4,7.6,27.9,24.3,34.2"/>
	<path class="st2" d="M331.3,503.6c15.5-13.6,17.4-26.4,6.6-45.8c-15.5-2.2-21.3,7.4-21.5,37.3c3.9,2.4,8.9,5.5,13.8,8.5"/>
	<path class="st2" d="M1008.7,619.1c7.5-4.4,15.9-6.9,21.6-14.7c14.3-19.6,8.4-42.1-12.7-52.5c-24.7-12.2-53.7-8.4-69.3,9.5
		c-7.4,8.5-11.1,18.3-9.8,29.8c1.1,10.1,8,18.7,19.2,21.3c16.4,3.8,32.8,8.4,50,6.7"/>
	<path class="st2" d="M648.4,649.7c14.1-5.2,11.5-17.5,10.4-27.6c-2.5-23.7-12.5-44.2-33.8-56.3c-8.9-5.1-18.9-11.4-30.7-5.9
		c-13.2,6.2-19.2,19.9-15.1,34.1c5.4,18.6,19.2,29.8,33.9,40.8c10.4,7.8,21.1,13.8,34.2,14.9"/>
	<path class="st2" d="M202.8,663c6.8-3.5,14.3-6.1,20.1-10.8c13.9-11.2,15.3-28.4,4.6-42.4c-19.6-25.7-58.4-31.6-85.2-13.1
		c-11.5,8-13,23-5.4,37.3c8.8,16.5,25.7,21.1,41.5,26.5c7.2,2.5,15.5,1.8,23.3,2.5"/>
	<path class="st2" d="M996.4,478.3c7.5-1.4,14.9-3.1,22.4-4.1c21.9-3,39-13.2,51.4-31.8c11.1-16.6,21.3-33.5,29.3-52
		c11.1-25.5,4-45.4-14.2-63c-15.8-15.3-33.5-28.1-57.3-25.9c-36.8,3.5-75.7,27.1-86.7,70c-5,19.6-0.1,38.5,3.1,57.6
		c1,6.1,1.2,12.4,3.3,18.1c8.9,24.1,16.6,29.6,47.7,31.2"/>
	<path class="st2" d="M730,470.9c23.1-11.3,46.3-22.5,69.4-33.9c3.1-1.6,6.1-3.8,8.5-6.4c6.2-6.4,5.6-17.2-2.1-21
		c-13.3-6.6-27.3-9.7-42.5-7c-10.5,1.8-21.4,1-31.9,2.4c-9,1.2-17.9,3.6-26.7,6.2c-10.3,3.1-13.8,10.8-12.9,21.2
		c0.9,10.6,4.9,20.1,10.6,28.8c6.4,9.8,16.2,10.6,26.6,9.7"/>
	<path class="st2" d="M846.9,580.1c30.9-4.7,44.9-29,59.8-52.1c5.7-8.8,10.4-18.2,21.5-21.1c2.4-0.6,5-1,7.5-1
		c35.5-1.3,71.1-2.3,106.6-4c22.6-1.1,39.1-11.6,47.1-33.8c11.3-31.4,26.8-60.8,41.4-90.7c9.6-19.6,16.3-40.7,29.6-58.2
		c10-13,18.7-26.6,21-42.8c2.7-19.3,4.1-39-4.8-57.6c-6.5-13.5-17.4-19.4-31.9-19.3c-12.9,0.1-25.6-0.2-38.5,3.7
		c-16.8,5.1-28.7,15.2-38.4,29c-12.1,17.3-27.8,28.4-49,33.3c-22.8,5.3-45.3,12.5-67.2,21.1c-16,6.3-28.1,17.7-33.6,35.7
		c-5.3,17.2-10.9,34.4-10.1,52.3c0.6,15,4.2,30.2,8.2,44.8c5,18.2,5,36.3,1.5,54.4c-2.4,12.3-12.3,19.2-25.5,19.1
		c-23.1-0.2-45.9-0.2-68.3,8c-25.6,9.4-38.6,28-42.4,53.5c-1.9,12.5,4.5,21.3,21,23.3c14.4,1.7,29.1,1.7,43.7,2.5"/>
	<path class="st2" d="M39.6,421.5c28.4-9,51.4-26,67.9-50.2c6.6-9.7,9.8-22.9,10.8-34.8c1.8-20.1,0.2-40.5,0.9-60.7
		c0.3-9.3,3.1-18.4,4.1-27.7c1.9-18.3-9-33.3-29.6-31c-11.7,1.3-23.5,2.4-35.2,4.2c-13.9,2.2-28.2,3.1-39.6,13.5
		c-9.6,8.8-10.1,18.4-6.6,30c4.8,15.9,11.4,31.9,8.4,49c-2.5,14-6,27.8-9.7,41.6c-4.8,18.2-3.9,35.5,5.1,52.3
		c4.9,9.1,11.4,15,22.4,13.9"/>
	<path class="st2" d="M618.3,142.1c19.3-6.7,26.1-24.8,23.4-40.4c-3.1-18-11.3-32.7-30.5-38.6c-11.7-3.5-23.9,0.3-28.6,11.8
		c-6.7,16.4-6.9,33.7,0.8,49.9c6.5,13.8,18.7,19.1,33.8,17.3"/>
</g>
<g id="j3nFdv.tif">
	
		<image style="overflow:visible;" width="630" height="338" id="Layer_0" xlink:href="E170630C19A8CDF7.png"  transform="matrix(0.5 0 0 0.5 1503 951)">
	</image>
</g>
</svg>
